<?xml version="1.0" encoding="utf-8"?>
<!-- Generator: Adobe Illustrator 19.0.0, SVG Export Plug-In . SVG Version: 6.00 Build 0)  -->
<svg version="1.1" id="Layer_1" xmlns="http://www.w3.org/2000/svg" xmlns:xlink="http://www.w3.org/1999/xlink" x="0px" y="0px"
	 viewBox="0 0 296.1 65.8" style="enable-background:new 0 0 296.1 65.8;" xml:space="preserve">
<style type="text/css">
	.st0{fill:#010101;}
	.st1{fill:#E61E25;}
</style>
<g id="XMLID_2_">
	<path id="XMLID_14_" class="st0" d="M103.9,43.1c0-7.4-4.6-12-10.6-12s-10.6,4.5-10.6,12c0,7.5,4.4,12.4,10.5,12.4
		C99.5,55.5,103.9,50.6,103.9,43.1z M71.3,43.1c0-13.5,9.2-21.8,22.1-21.8s22.1,8.4,22.1,21.8s-8.8,22-22.2,22
		C80,65.2,71.3,56.6,71.3,43.1z"/>
	<path id="XMLID_13_" class="st0" d="M155.2,64.6c-2.7,0-4-1.3-4-4V40.4c0-5.2-1.5-8.9-7-8.9c-5.9,0-7.4,5.2-7.5,5.6v18.4h3.6
		c0.9,0,1.2,0.3,1.2,1.2v6.7c0,0.8-0.4,1.2-1.2,1.2h-18.9c-0.6,0-1.2-0.4-1.2-1.2v-6.8c0-0.9,0.4-1.2,1.2-1.2h4.2V31.1h-4.2
		c-0.6,0-1.2-0.3-1.2-1.2v-6.7c0-0.8,0.4-1.2,1.2-1.2h12.7c0.8,0,1.2,0.4,1.2,1.2v5.6h0.2c0.4-0.7,3.1-7.4,12.7-7.4
		c9.2,0,14.4,6.3,14.4,15.2v18.7h4.2c0.8,0,1.2,0.3,1.2,1.2v6.7c0,0.8-0.4,1.2-1.2,1.2L155.2,64.6L155.2,64.6z"/>
	<path id="XMLID_10_" class="st0" d="M202,43.5c0-8.1-4.4-12.3-9.8-12.3c-6,0-10.2,4.8-10.2,12.4c0,7.4,4.4,12,10.2,12
		C197.4,55.6,202,51.5,202,43.5z M207.1,64.6c-2.6,0-4-1.3-4-4V57h-0.2c-1.2,2.9-4.6,8.2-13,8.2c-11.9,0-19.1-9-19.1-21.8
		c0-14,8.1-22.1,19.2-22.1c8.1,0,11.9,4.5,12.6,6.1h0.2v-4.1c0-0.8,0.4-1.2,1.2-1.2h7.7c0.6,0,1.2,0.4,1.2,1.2v32.1h4.3
		c0.8,0,1.1,0.3,1.1,1.2v6.7c0,0.8-0.4,1.2-1.1,1.2L207.1,64.6L207.1,64.6z"/>
	<path id="XMLID_9_" class="st0" d="M252,58.3c0.5,0.6,0.3,1.4-0.2,2c-1.6,1.4-4.9,4.7-11.6,4.7c-10.2,0-15.8-5.6-15.8-16.5V31.1
		h-4.1c-0.8,0-1.4-0.6-1.4-1.4v-6.4c0-0.8,0.6-1.4,1.4-1.4h4.1v-9.7c0-0.8,0.6-1.4,1.4-1.4h8.6c0.8,0,1.4,0.6,1.4,1.4v9.7h10.6
		c0.8,0,1.4,0.6,1.4,1.4v6.4c0,0.8-0.6,1.4-1.4,1.4h-10.6v17.5c0,3.8,1.7,6.5,5.7,6.5c2.9,0,4.1-1.2,4.9-1.9
		c0.6-0.5,1.5-0.4,1.9,0.2L252,58.3z"/>
	<path id="XMLID_6_" class="st0" d="M281.9,38.4c-0.2-4-2.7-7.9-8.7-7.9c-4.9,0-8.7,2.5-9.6,7.9H281.9z M263.4,45.1
		c0.8,7.2,5.9,10.4,11.4,10.4c6.9,0,11.4-4.7,11.9-5.6c0.4-0.6,1.1-0.8,1.8-0.2l4.1,4.5c0.6,0.7,0.6,1.2,0.2,1.9
		c-0.9,1.4-6.8,9-18.9,9c-12.1,0-22.1-8.1-22.1-22c0-14.1,10.9-21.8,21-21.8c13.3,0,19.9,8.1,19.9,22.3c0,0.8-0.6,1.4-1.4,1.4H263.4
		z"/>
	<path id="XMLID_5_" class="st0" d="M3.8,63.9c-0.6,0-1-0.4-1-1.1v-7.4c0-0.8,0.3-1.1,1-1.1h4V31.4h-4c-0.6,0-1-0.3-1-1.1v-6.5
		c0-0.7,0.3-1.1,1-1.1h13.9c0.7,0,1.1,0.4,1.1,1.1v30.4h3.5c0.7,0,1.1,0.3,1.1,1.1v7.4c0,0.7-0.5,1.1-1.1,1.1L3.8,63.9L3.8,63.9z"/>
	<path id="XMLID_4_" class="st0" d="M26.9,13.4c-0.7,0-1.1-0.4-1.1-1.1V4.8c0-0.7,0.3-1.1,1.1-1.1h8.6c16.8,0,30.4,10.9,30.4,30.5
		c0,18.5-12.2,29.7-27.1,29.7h-9.2c-0.7,0-1.1-0.4-1.1-1.1v-7.4c0-0.7,0.3-1.1,1.1-1.1h5c12.1-0.1,19.1-5.6,19.1-19.8
		c0-13.9-7-21-19.8-21h-7V13.4z"/>
	<path id="XMLID_3_" class="st1" d="M17.1,1.8c-3.8-0.7-5.7,2.9-6.1,3.8c-0.5-0.8-2.3-4.5-6.1-3.8c-3,0.6-3.6,3.9-3.1,5.7
		c1.1,4,5.2,6.8,9.2,9.9c4-3.1,8.1-5.9,9.2-9.9C20.7,5.8,20.1,2.5,17.1,1.8z"/>
</g>
</svg>
