<svg width="19" height="21" viewBox="0 0 19 21" fill="none" xmlns="http://www.w3.org/2000/svg">
<path d="M16.0093 18.2422V7.27344H2.04052V18.2422H16.0093ZM13.0093 0.242188H15.0249V2.25781H16.0093C16.5405 2.25781 17.0093 2.46094 17.4155 2.86719C17.8218 3.27344 18.0249 3.74219 18.0249 4.27344V18.2422C18.0249 18.7734 17.8218 19.2422 17.4155 19.6484C17.0093 20.0547 16.5405 20.2578 16.0093 20.2578H2.04052C1.47802 20.2578 0.993649 20.0703 0.587399 19.6953C0.212399 19.2891 0.0248995 18.8047 0.0248995 18.2422V4.27344C0.0248995 3.74219 0.212399 3.27344 0.587399 2.86719C0.993649 2.46094 1.47802 2.25781 2.04052 2.25781H3.0249V0.242188H5.04052V2.25781H13.0093V0.242188ZM14.0405 11.2578V16.2734H9.0249V11.2578H14.0405Z" fill="#93A3AA"/>
</svg>
