<svg width="20" height="20" viewBox="0 0 20 20" fill="none" xmlns="http://www.w3.org/2000/svg">
<path d="M2.49997 3.12506V0.625004C2.49997 0.279506 2.77948 0 3.12506 0C3.47048 0 3.74998 0.279506 3.74998 0.625004V3.12506C3.74998 3.47048 3.47048 3.74998 3.12506 3.74998C2.77948 3.75002 2.49997 3.47048 2.49997 3.12506ZM13.1251 3.75002C13.4704 3.75002 13.7501 3.47052 13.7501 3.1251V0.625004C13.7501 0.279506 13.4704 0 13.1251 0C12.7796 0 12.4999 0.279506 12.4999 0.625004V3.12506C12.4999 3.47048 12.7796 3.75002 13.1251 3.75002ZM19.9999 14.9998C19.9999 17.7614 17.7612 20 14.9999 20C12.2388 20 9.99998 17.7614 9.99998 14.9998C9.99998 12.2387 12.2388 9.99998 14.9999 9.99998C17.7612 9.99998 19.9999 12.2387 19.9999 14.9998ZM18.7501 14.9998C18.7501 12.9323 17.0679 11.2499 15 11.2499C12.9322 11.2499 11.25 12.9322 11.25 14.9998C11.25 17.0678 12.9322 18.75 15 18.75C17.0679 18.75 18.7501 17.0678 18.7501 14.9998ZM5.00003 7.50001H2.49997V9.99998H5.00003V7.50001ZM2.49997 13.75H5.00003V11.2499H2.49997V13.75ZM6.24996 9.99998H8.75005V7.50001H6.24996V9.99998ZM6.24996 13.75H8.75005V11.2499H6.24996V13.75ZM1.25005 14.8756V6.24996H15V8.75001H16.25V3.87459C16.25 3.11529 15.6444 2.49997 14.8963 2.49997H14.375V3.1251C14.375 3.8135 13.8146 4.37507 13.1251 4.37507C12.4355 4.37507 11.8751 3.8135 11.8751 3.1251V2.49997H4.37494V3.1251C4.37494 3.8135 3.81465 4.37507 3.1251 4.37507C2.43538 4.37507 1.87505 3.8135 1.87505 3.1251V2.49997H1.35437C0.606167 2.49997 0 3.11529 0 3.87459V14.8756C0 15.6324 0.606167 16.2501 1.35437 16.2501H8.75005V14.9999H1.35437C1.29774 14.9998 1.25005 14.9414 1.25005 14.8756ZM12.4999 9.99998V7.50001H10V9.99998H12.4999ZM16.875 14.9998H14.9999V13.1248C14.9999 12.7795 14.7204 12.5 14.3749 12.5C14.0294 12.5 13.7501 12.7795 13.7501 13.1248V15.6251C13.7501 15.9704 14.0294 16.2501 14.3749 16.2501H16.875C17.2205 16.2501 17.5 15.9704 17.5 15.6251C17.5 15.2796 17.2205 14.9998 16.875 14.9998Z" fill="#0078FF"/>
</svg>
