<svg width="16" height="16" viewBox="0 0 16 16" fill="none" xmlns="http://www.w3.org/2000/svg">
<path d="M11.7007 14.4001C11.9007 14.7001 12.1007 14.9002 12.2007 15.2002C12.4007 15.5002 12.2008 15.8001 11.9008 15.9001C11.7008 15.9001 11.6008 15.9002 11.4008 15.7002C11.2008 15.4002 11.0008 15.2001 10.8008 14.9001C8.70078 15.9001 6.60079 15.9001 4.50079 14.9001C4.30079 15.2001 4.10076 15.4002 3.90076 15.7002C3.80076 15.8002 3.60079 15.9001 3.50079 15.9001C3.30079 15.9001 3.20077 15.8001 3.10077 15.6001C3.10077 15.5001 3.10074 15.3002 3.20074 15.2002C3.40074 15.0002 3.50074 14.7002 3.70074 14.5002C1.80074 13.1002 0.800781 11.2001 0.800781 8.90014C0.800781 7.00014 1.50076 5.40015 2.90076 4.10015C5.60076 1.50015 10.0008 1.60017 12.6008 4.50017C15.5008 7.30017 15.1007 12.0001 11.7007 14.4001ZM7.80078 2.90014C4.50078 2.90014 1.80078 5.60014 1.80078 8.90014C1.80078 12.2001 4.50078 14.9001 7.80078 14.9001C11.1008 14.9001 13.8008 12.2001 13.8008 8.90014C13.7008 5.60014 11.1008 2.90014 7.80078 2.90014Z" fill="#909090"/>
<path d="M4.70007 2.10037C3.50007 3.10037 2.20009 4.10037 1.00009 5.10037C-0.09991 4.10037 0.20009 2.80037 1.00009 2.10037C1.20009 1.90037 1.5001 1.7004 1.7001 1.5004C2.5001 0.800396 3.70008 0.900383 4.40008 1.80038C4.60008 1.90038 4.70007 2.00037 4.70007 2.10037Z" fill="#909090"/>
<path d="M14.5008 5.20003C13.3008 4.20003 12.1008 3.20003 10.8008 2.20003C11.5008 1.00003 12.8007 0.89999 13.7007 1.59999C14.0007 1.79999 14.3008 2.1 14.5008 2.3C15.3008 3 15.4007 4.09998 14.7007 4.89998C14.7007 4.99998 14.6008 5.10003 14.5008 5.20003Z" fill="#909090"/>
<path d="M8.70074 1.10016C8.50074 1.10016 8.40074 1.10016 8.20074 1.10016C8.20074 1.30016 8.20074 1.60017 8.20074 1.80017C7.90074 1.80017 7.60078 1.80017 7.30078 1.80017C7.30078 1.60017 7.30078 1.30016 7.30078 1.10016C7.10078 1.10016 7.00078 1.10016 6.80078 1.10016C6.80078 0.800159 6.80078 0.500195 6.80078 0.200195C7.40078 0.200195 8.00077 0.200195 8.60077 0.200195C8.70077 0.500195 8.70074 0.800159 8.70074 1.10016Z" fill="#909090"/>
<path d="M7.20074 8.60006C6.70074 7.70006 6.20074 6.80008 5.70074 6.00008C5.50074 5.60008 5.30077 5.30005 5.10077 4.90005C5.00077 4.70005 5.00074 4.50007 5.20074 4.30007C5.40074 4.20007 5.60078 4.20005 5.80078 4.40005C5.80078 4.50005 5.90076 4.50006 5.90076 4.60006C6.60076 5.90006 7.30079 7.20004 8.00079 8.40004L8.10077 8.50008C8.20077 8.70008 8.10076 9.00006 7.90076 9.10006C6.90076 9.70006 5.90079 10.3 5.00079 10.9C4.70079 11.1 4.40078 10.9001 4.30078 10.6001C4.30078 10.4001 4.30079 10.2001 4.50079 10.1001C5.10079 9.70006 5.80076 9.30005 6.40076 8.90004C6.80076 8.90004 7.00074 8.80006 7.20074 8.60006Z" fill="#909090"/>
</svg>
