<svg width="11" height="20" viewBox="0 0 11 20" fill="none" xmlns="http://www.w3.org/2000/svg">
<path d="M7.96301 9.08516C7.17818 8.65144 6.34379 8.32099 5.51766 7.97815C5.0385 7.77987 4.58 7.54856 4.17519 7.22636C3.37797 6.59024 3.53081 5.55758 4.46434 5.14864C4.7287 5.03298 5.00545 4.99581 5.28634 4.97928C6.36857 4.92145 7.39711 5.11973 8.37607 5.59062C8.86349 5.82607 9.02459 5.75172 9.18982 5.24365C9.3633 4.70666 9.50788 4.16141 9.66897 3.6203C9.77637 3.2568 9.64419 3.01722 9.30134 2.86439C8.67348 2.58763 8.0291 2.38936 7.35167 2.28196C6.46771 2.14565 6.46771 2.14152 6.46358 1.25343C6.45945 0.00183587 6.45945 0.00183585 5.20373 0.00183585C5.02198 0.00183585 4.84023 -0.00229481 4.65848 0.00183585C4.07192 0.0183585 3.97279 0.121625 3.95627 0.71231C3.948 0.976672 3.95627 1.24103 3.95214 1.50953C3.948 2.29435 3.94387 2.28196 3.19209 2.55459C1.3746 3.21549 0.251062 4.45469 0.131273 6.43741C0.0238759 8.19294 0.940883 9.37844 2.38248 10.2417C3.27058 10.7746 4.25367 11.0885 5.19546 11.5057C5.56309 11.6668 5.9142 11.8527 6.21987 12.1088C7.12448 12.8565 6.95926 14.0998 5.88529 14.5707C5.31112 14.8227 4.70392 14.8846 4.08019 14.8061C3.11774 14.6863 2.1966 14.4344 1.32917 13.9841C0.821094 13.7198 0.67239 13.79 0.498902 14.3394C0.350198 14.8144 0.218017 15.2935 0.0858359 15.7727C-0.0917826 16.4171 -0.0256924 16.5699 0.589776 16.8715C1.3746 17.2515 2.21313 17.4456 3.06817 17.5819C3.73734 17.6893 3.75799 17.7182 3.76626 18.4122C3.77039 18.7261 3.77039 19.0442 3.77452 19.3581C3.77865 19.7547 3.96866 19.986 4.37759 19.9942C4.84023 20.0025 5.30699 20.0025 5.76963 19.9901C6.14965 19.9819 6.34379 19.7753 6.34379 19.3912C6.34379 18.9616 6.36444 18.5279 6.34792 18.0983C6.32727 17.6604 6.51728 17.4374 6.9386 17.3217C7.90931 17.0573 8.73544 16.5369 9.37156 15.7603C11.1395 13.6124 10.4662 10.4689 7.96301 9.08516Z" fill="#0078FF"/>
</svg>
