<svg width="20" height="20" viewBox="0 0 20 20" fill="none" xmlns="http://www.w3.org/2000/svg">
<circle cx="10" cy="10" r="10" fill="#585858"/>
<path d="M13.7846 11.36C13.7846 8.264 9.14064 9.104 9.14064 8.096C9.14064 7.808 9.40464 7.568 10.2326 7.568C10.9646 7.568 11.7446 7.772 12.5726 8.192L13.4246 6.14C12.7406 5.756 11.8766 5.528 10.9886 5.444V4.16H9.29664V5.468C7.32864 5.744 6.34464 6.884 6.34464 8.24C6.34464 11.372 10.9886 10.52 10.9886 11.576C10.9886 11.864 10.7006 12.032 9.89664 12.032C8.97264 12.032 7.91664 11.732 7.12464 11.264L6.21264 13.328C6.93264 13.772 8.09664 14.096 9.29664 14.168V15.44H10.9886V14.108C12.8486 13.784 13.7846 12.656 13.7846 11.36Z" fill="white"/>
</svg>
