<svg width="30" height="30" viewBox="0 0 30 30" fill="none" xmlns="http://www.w3.org/2000/svg">
<path fill-rule="evenodd" clip-rule="evenodd" d="M20.2814 10.8632H9.52113C9.04504 10.8632 8.71914 10.4243 8.85384 9.96754L9.19596 9.15414C9.27183 8.90177 9.46536 8.73689 9.73011 8.68502C9.99563 8.63238 12.0362 8.44969 12.5316 8.4195C12.7554 8.40789 12.8947 8.22132 12.9295 8.1114C12.9652 8.00147 13.1974 7.4921 13.3421 7.30863C13.4079 7.22503 13.7013 7.05859 14.9113 7.05859C16.1205 7.05859 16.4201 7.22503 16.4859 7.30863C16.6306 7.4921 16.8636 8.00147 16.8992 8.1114C16.9341 8.22132 17.0726 8.40789 17.2971 8.4195C17.7918 8.44969 19.8331 8.63238 20.0979 8.68502C20.3626 8.73689 20.5562 8.90177 20.632 9.15414L20.9487 9.96754C21.0834 10.4243 20.7575 10.8632 20.2814 10.8632ZM19.5465 12.0779H10.2749C9.8437 12.0779 9.50463 12.4464 9.54024 12.8761L10.3275 22.3033C10.3577 22.664 10.6596 22.9412 11.0211 22.9412H18.801C19.1626 22.9412 19.4645 22.664 19.4947 22.3033L20.2812 12.8761C20.3175 12.4464 19.9785 12.0779 19.5465 12.0779ZM12.2742 13.3228C11.8941 13.3228 11.5859 13.6309 11.5859 14.011V21.0079C11.5859 21.388 11.8941 21.6961 12.2742 21.6961C12.6543 21.6961 12.9624 21.388 12.9624 21.0079V14.011C12.9624 13.6309 12.6543 13.3228 12.2742 13.3228ZM14.2366 14.011C14.2366 13.6309 14.5448 13.3228 14.9249 13.3228C15.305 13.3228 15.6131 13.6309 15.6131 14.011V21.0079C15.6131 21.388 15.305 21.6961 14.9249 21.6961C14.5448 21.6961 14.2366 21.388 14.2366 21.0079V14.011ZM17.5756 13.3228C17.1955 13.3228 16.8874 13.6309 16.8874 14.011V21.0079C16.8874 21.388 17.1955 21.6961 17.5756 21.6961C17.9558 21.6961 18.2639 21.388 18.2639 21.0079V14.011C18.2639 13.6309 17.9558 13.3228 17.5756 13.3228Z" fill="#2284C3"/>
</svg>
