<svg width="30" height="30" viewBox="0 0 30 30" fill="none" xmlns="http://www.w3.org/2000/svg">
<path fill-rule="evenodd" clip-rule="evenodd" d="M20.2824 10.8632H9.5221C9.04602 10.8632 8.72011 10.4243 8.85481 9.96754L9.19694 9.15414C9.2728 8.90177 9.46633 8.73689 9.73108 8.68502C9.99661 8.63238 12.0372 8.44969 12.5326 8.4195C12.7563 8.40789 12.8957 8.22132 12.9305 8.1114C12.9661 8.00147 13.1984 7.4921 13.3431 7.30863C13.4089 7.22503 13.7023 7.05859 14.9123 7.05859C16.1214 7.05859 16.421 7.22503 16.4868 7.30863C16.6316 7.4921 16.8646 8.00147 16.9002 8.1114C16.935 8.22132 17.0736 8.40789 17.2981 8.4195C17.7928 8.44969 19.8341 8.63238 20.0989 8.68502C20.3636 8.73689 20.5572 8.90177 20.633 9.15414L20.9497 9.96754C21.0844 10.4243 20.7585 10.8632 20.2824 10.8632ZM19.5475 12.0779H10.2759C9.84468 12.0779 9.50561 12.4464 9.54122 12.8761L10.3285 22.3033C10.3587 22.664 10.6606 22.9412 11.0221 22.9412H18.802C19.1635 22.9412 19.4654 22.664 19.4956 22.3033L20.2821 12.8761C20.3185 12.4464 19.9795 12.0779 19.5475 12.0779ZM12.2751 13.3228C11.895 13.3228 11.5869 13.6309 11.5869 14.011V21.0079C11.5869 21.388 11.895 21.6961 12.2751 21.6961C12.6553 21.6961 12.9634 21.388 12.9634 21.0079V14.011C12.9634 13.6309 12.6553 13.3228 12.2751 13.3228ZM14.2376 14.011C14.2376 13.6309 14.5457 13.3228 14.9258 13.3228C15.306 13.3228 15.6141 13.6309 15.6141 14.011V21.0079C15.6141 21.388 15.306 21.6961 14.9258 21.6961C14.5457 21.6961 14.2376 21.388 14.2376 21.0079V14.011ZM17.5766 13.3228C17.1965 13.3228 16.8884 13.6309 16.8884 14.011V21.0079C16.8884 21.388 17.1965 21.6961 17.5766 21.6961C17.9567 21.6961 18.2649 21.388 18.2649 21.0079V14.011C18.2649 13.6309 17.9567 13.3228 17.5766 13.3228Z" fill="#2284C3"/>
</svg>
