<svg width="28" height="28" viewBox="0 0 28 28" fill="none" xmlns="http://www.w3.org/2000/svg">
<path d="M27.1978 13.6774C26.7521 13.6774 26.3956 14.034 26.3956 14.4796V21.7768C26.3956 23.7615 24.7793 25.3718 22.8005 25.3718H5.19949C3.21477 25.3718 1.60441 23.7555 1.60441 21.7768V14.3608C1.60441 13.9151 1.24788 13.5586 0.802207 13.5586C0.356537 13.5586 0 13.9151 0 14.3608V21.7768C0 24.6469 2.33531 26.9763 5.19949 26.9763H22.8005C25.6706 26.9763 28 24.6409 28 21.7768V14.4796C28 14.0399 27.6435 13.6774 27.1978 13.6774Z" fill="white"/>
<path d="M13.4358 20.6052C13.5903 20.7597 13.7983 20.8429 14.0004 20.8429C14.2024 20.8429 14.4104 20.7656 14.5649 20.6052L19.6633 15.5067C19.9783 15.1918 19.9783 14.6867 19.6633 14.3717C19.3484 14.0568 18.8433 14.0568 18.5284 14.3717L14.8026 18.1035V1.8276C14.8026 1.38193 14.446 1.02539 14.0004 1.02539C13.5547 1.02539 13.1981 1.38193 13.1981 1.8276V18.1035L9.4664 14.3717C9.15145 14.0568 8.64636 14.0568 8.33142 14.3717C8.01648 14.6867 8.01648 15.1918 8.33142 15.5067L13.4358 20.6052Z" fill="white"/>
</svg>
