<svg width="16" height="16" viewBox="0 0 16 16" fill="none" xmlns="http://www.w3.org/2000/svg">
<path d="M11.8308 5.18085C11.6955 5.04539 11.4558 5.04539 11.3204 5.18085L4.45473 12.0523C4.3726 12.1345 4.33524 12.2509 4.35355 12.3656C4.37223 12.4802 4.44485 12.579 4.54847 12.6309L5.11211 12.9131V13.8623L3.38522 14.3564L1.64212 12.6118L2.13584 10.8835H3.08421L3.3662 11.4476C3.41801 11.5513 3.51672 11.624 3.63127 11.6427C3.65066 11.6458 3.67005 11.6472 3.68907 11.6472C3.78389 11.6472 3.87624 11.6098 3.94429 11.5414L10.81 4.66997C10.8776 4.60222 10.9157 4.51051 10.9157 4.41454C10.9157 4.31857 10.8776 4.22687 10.81 4.15912L9.48245 2.83046C9.41477 2.76271 9.32313 2.72461 9.22723 2.72461H9.22652C9.13028 2.72495 9.03826 2.76342 8.97096 2.83151L1.60723 10.2678C1.60368 10.2715 1.60385 10.277 1.60043 10.2807C1.56337 10.3207 1.53244 10.3669 1.51627 10.4231L0.889516 12.6178L0.0724481 15.4808C0.0364761 15.6068 0.0717374 15.7426 0.164459 15.8354C0.233188 15.9042 0.325199 15.9413 0.419681 15.9413C0.45281 15.9413 0.485939 15.9367 0.51873 15.9275L3.37926 15.1097L5.57217 14.4824C5.57876 14.4805 5.5833 14.4755 5.58976 14.4733C5.61254 14.4654 5.63247 14.4526 5.65341 14.4402C5.67399 14.428 5.69456 14.4172 5.71196 14.4015C5.71663 14.3973 5.72275 14.3958 5.72725 14.3914L13.1573 7.02141C13.2253 6.95403 13.2637 6.86195 13.2641 6.76565C13.2644 6.66967 13.2263 6.5776 13.1583 6.50951L11.8308 5.18085Z" fill="#2284C3"/>
<path d="M15.5183 2.63605L13.3525 0.468464C12.8068 -0.0776799 11.8575 -0.0787289 11.3097 0.469513L9.9875 1.80487C9.84757 1.94636 9.84791 2.1739 9.98855 2.31467L13.6736 6.00282C13.7441 6.07338 13.8365 6.10868 13.9288 6.10868C14.0208 6.10868 14.1125 6.07375 14.183 6.00391L15.5182 4.67951C15.7911 4.40646 15.9412 4.04376 15.9412 3.65781C15.9412 3.27187 15.7911 2.90911 15.5183 2.63605Z" fill="#2284C3"/>
</svg>
