<svg width="14" height="14" viewBox="0 0 14 14" fill="none" xmlns="http://www.w3.org/2000/svg">
<path d="M11.8308 3.18085C11.6955 3.04539 11.4558 3.04539 11.3204 3.18085L4.45473 10.0523C4.3726 10.1345 4.33524 10.2509 4.35355 10.3656C4.37223 10.4802 4.44485 10.579 4.54847 10.6309L5.11211 10.9131V11.8623L3.38522 12.3564L1.64212 10.6118L2.13584 8.88346H3.08421L3.3662 9.44758C3.41801 9.5513 3.51672 9.62398 3.63127 9.64266C3.65066 9.64584 3.67005 9.64723 3.68907 9.64723C3.78389 9.64723 3.87624 9.60984 3.94429 9.54138L10.81 2.66997C10.8776 2.60222 10.9157 2.51051 10.9157 2.41454C10.9157 2.31857 10.8776 2.22687 10.81 2.15912L9.48245 0.830461C9.41477 0.762713 9.32313 0.724609 9.22723 0.724609H9.22652C9.13028 0.724948 9.03826 0.763424 8.97096 0.83151L1.60723 8.26785C1.60368 8.27147 1.60385 8.27698 1.60043 8.28067C1.56337 8.3207 1.53244 8.36693 1.51627 8.42307L0.889516 10.6178L0.0724481 13.4808C0.0364761 13.6068 0.0717374 13.7426 0.164459 13.8354C0.233188 13.9042 0.325199 13.9413 0.419681 13.9413C0.45281 13.9413 0.485939 13.9367 0.51873 13.9275L3.37926 13.1097L5.57217 12.4824C5.57876 12.4805 5.5833 12.4755 5.58976 12.4733C5.61254 12.4654 5.63247 12.4526 5.65341 12.4402C5.67399 12.428 5.69456 12.4172 5.71196 12.4015C5.71663 12.3973 5.72275 12.3958 5.72725 12.3914L13.1573 5.02141C13.2253 4.95403 13.2637 4.86195 13.2641 4.76565C13.2644 4.66967 13.2263 4.5776 13.1583 4.50951L11.8308 3.18085Z" fill="#2284C3"/>
</svg>
