<svg width="32" height="32" viewBox="0 0 32 32" fill="none" xmlns="http://www.w3.org/2000/svg">
<path fill-rule="evenodd" clip-rule="evenodd" d="M16 32C7.16338 32 0 24.8366 0 16C0 7.16338 7.16338 0 16 0C24.8366 0 32 7.16338 32 16C32 24.8366 24.8366 32 16 32Z" fill="#3B5998"/>
<path fill-rule="evenodd" clip-rule="evenodd" d="M20.066 11.4287H11.9323C11.6536 11.4287 11.4277 11.6546 11.4277 11.9333V20.0669C11.4277 20.3456 11.6536 20.5716 11.9323 20.5716H16.3112V17.031H15.1197V15.6511H16.3112V14.6335C16.3112 13.4526 17.0325 12.8096 18.0859 12.8096C18.5906 12.8096 19.0243 12.8472 19.1506 12.864V14.0981L18.42 14.0984C17.8471 14.0984 17.7361 14.3706 17.7361 14.7701V15.6511H19.1025L18.9246 17.031H17.7361V20.5716H20.066C20.3447 20.5716 20.5706 20.3456 20.5706 20.0669V11.9333C20.5706 11.6546 20.3447 11.4287 20.066 11.4287Z" fill="white"/>
</svg>
