<svg width="20" height="20" viewBox="0 0 20 20" fill="none" xmlns="http://www.w3.org/2000/svg">
<path d="M15.1845 10.6445C13.8427 10.6445 12.6357 11.25 11.8054 12.2099H10.3149V10.5995C13.0154 10.446 15.1667 8.12958 15.1667 5.30396C15.1668 2.3793 12.8621 0 10.0295 0C8.86535 0 7.72498 0.413208 6.81856 1.16348L7.17563 1.62338C7.99293 0.94696 8.97974 0.589447 10.0295 0.589447C12.5473 0.589447 14.5957 2.70432 14.5957 5.30396C14.5957 7.90344 12.5473 10.0183 10.0295 10.0183C7.51157 10.0183 5.46315 7.90344 5.46315 5.30396C5.46315 4.15405 5.86855 3.04672 6.60471 2.18567L6.17655 1.7955C5.34832 2.76428 4.89223 4.01031 4.89223 5.3038C4.89223 8.12943 7.04365 10.446 9.74398 10.5994V12.2098H8.25364C7.42333 11.2498 6.21616 10.6444 4.87449 10.6444C3.94236 10.6444 3.04703 10.9344 2.28531 11.483L2.61193 11.9666C3.27744 11.4873 4.05986 11.2338 4.87449 11.2338C7.05799 11.2338 8.83431 13.0679 8.83431 15.3223C8.83431 17.5764 7.05799 19.4106 4.87449 19.4106C2.691 19.4106 0.914675 17.5766 0.914675 15.3223C0.914675 14.2458 1.31652 13.2297 2.04603 12.4611L1.63827 12.0485C0.803534 12.928 0.34375 14.0906 0.34375 15.3223C0.34375 17.9016 2.3762 20 4.87449 20C7.37279 20 9.40524 17.9016 9.40524 15.3223C9.40524 14.3938 9.14187 13.5277 8.6883 12.7992H11.3707C10.9172 13.5277 10.6538 14.3938 10.6538 15.3223C10.6538 17.9016 12.6862 20 15.1845 20C16.3774 20 17.5034 19.5253 18.3553 18.6635L17.9558 18.2425C17.2112 18.9957 16.2271 19.4106 15.1845 19.4106C13.001 19.4106 11.2247 17.5766 11.2247 15.3223C11.2247 13.0679 13.001 11.234 15.1845 11.234C17.3679 11.234 19.1444 13.0679 19.1444 15.3223C19.1444 16.1633 18.899 16.9711 18.4347 17.6582L18.903 17.9955C19.4343 17.2089 19.7153 16.2845 19.7153 15.3223C19.7153 12.7429 17.6828 10.6445 15.1845 10.6445Z" fill="#231F20"/>
</svg>
