<?xml version="1.0"?>
<svg xmlns="http://www.w3.org/2000/svg" height="512px" viewBox="0 0 511.9996 511" width="512px" class=""><g><path d="m510.832031 101.484375c-2.375-5.738281-7.972656-9.480469-14.179687-9.480469l-76.140625-.019531-.019531-76.136719c0-6.210937-3.742188-11.804687-9.476563-14.183594-5.734375-2.367187-12.339844-1.058593-16.730469 3.332032l-51.042968 51.042968c-42.117188-20.046874-90.191407-27.523437-136.644532-21.039062-51.984375 7.246094-99.125 30.746094-136.328125 67.949219-45.316406 45.316406-70.269531 105.5625-70.269531 169.644531 0 64.078125 24.957031 124.324219 70.269531 169.636719 45.308594 45.308593 105.554688 70.265625 169.636719 70.265625h.003906c64.074219 0 124.328125-24.957032 169.636719-70.265625 37.207031-37.207031 60.703125-84.347657 67.953125-136.328125 6.476562-46.453125-.992188-94.527344-21.042969-136.648438l51.046875-51.042968c4.386719-4.390626 5.703125-10.992188 3.328125-16.726563zm-245.398437 196.632813c-6.816406 6.820312-15.882813 10.578124-25.527344 10.578124-9.640625 0-18.707031-3.757812-25.527344-10.578124-6.820312-6.816407-10.574218-15.882813-10.574218-25.527344 0-9.640625 3.757812-18.707032 10.574218-25.527344 7.039063-7.035156 16.285156-10.554688 25.527344-10.554688 4.148438 0 8.296875.714844 12.242188 2.132813l-23.09375 23.097656c-5.996094 5.992188-5.996094 15.714844 0 21.710938 2.996093 2.996093 6.925781 4.496093 10.855468 4.496093 3.925782 0 7.855469-1.5 10.851563-4.496093l23.097656-23.097657c4.574219 12.746094 1.769531 27.570313-8.425781 37.765626zm9.582031-82.347657c-25.75-15.914062-60.039063-12.726562-82.347656 9.582031-12.617188 12.617188-19.566407 29.394532-19.566407 47.238282 0 17.847656 6.949219 34.621094 19.566407 47.238281 12.617187 12.621094 29.394531 19.570313 47.238281 19.570313s34.621094-6.949219 47.238281-19.570313c22.3125-22.308594 25.492188-56.597656 9.582031-82.347656l40.660157-40.660157c37.671875 48.394532 34.277343 118.609376-10.183594 163.070313-48.136719 48.132813-126.460937 48.132813-174.597656 0-48.136719-48.136719-48.136719-126.464844 0-174.601563 24.070312-24.066406 55.683593-36.101562 87.300781-36.101562 26.785156 0 53.570312 8.644531 75.769531 25.921875zm112.820313 204.75c-81.566407 81.566407-214.289063 81.566407-295.855469 0-81.570313-81.570312-81.570313-214.292969 0-295.859375 40.023437-40.023437 94.0625-61.035156 148.535156-61.035156 27.957031 0 56.039063 5.539062 82.382813 16.878906-.035157.203125-.050782.40625-.074219.609375-.019531.144531-.039063.289063-.054688.433594-.039062.460937-.066406.925781-.066406 1.390625l.003906 59.605469c-59.609375-37.96875-139.8125-30.960938-191.8125 21.039062-60.105469 60.105469-60.105469 157.910157 0 218.019531 30.058594 30.054688 69.53125 45.082032 109.011719 45.082032 39.472656 0 78.960938-15.03125 109.011719-45.082032 51.996093-52 59-132.199218 21.035156-191.8125l59.605469.003907c.46875 0 .929687-.023438 1.390625-.066407.144531-.015624.292969-.035156.4375-.054687.203125-.023437.40625-.039063.605469-.070313 33.441406 77.671876 16.410156 170.351563-44.15625 230.917969zm35.367187-261.429687-69.789063-.007813-.007812-69.785156 36.390625-36.394531.015625 54.433594c.003906 8.476562 6.871094 15.347656 15.347656 15.347656l54.433594.015625zm0 0" data-original="#000000" class="active-path" data-old_color="#9aa5aa" fill="#9aa5aa"/></g> </svg>
