<svg width="100" height="100" viewBox="0 0 100 100" fill="none" xmlns="http://www.w3.org/2000/svg">
<path d="M6.25 3.125H75C78.4515 3.125 81.25 5.92346 81.25 9.375V93.75C81.25 97.2015 78.4515 100 75 100H6.25C2.79846 100 0 97.2015 0 93.75V9.375C0 5.92346 2.79846 3.125 6.25 3.125Z" fill="#ECCE93"/>
<path d="M6.25 73.1689V9.375H75V93.75H26.8311L6.25 73.1689Z" fill="#EFEFEF"/>
<path d="M26.8311 73.1689V93.75L6.25 73.1689H26.8311Z" fill="#E76E54"/>
<path d="M25 12.5V0H56.25V12.5C56.25 15.9515 53.4515 18.75 50 18.75H31.25C27.7985 18.75 25 15.9515 25 12.5Z" fill="#E76E54"/>
<path d="M100 71.875C100 87.4077 87.4077 100 71.875 100C56.3423 100 43.75 87.4077 43.75 71.875C43.75 56.3423 56.3423 43.75 71.875 43.75C87.4077 43.75 100 56.3423 100 71.875Z" fill="#48C8EF"/>
<path d="M65.4304 83.9159L59.3742 77.8566C58.1542 76.6359 58.1542 74.6576 59.3742 73.4377C60.5941 72.2177 62.5724 72.2177 63.7931 73.4377L65.818 75.4595L79.9713 63.6629C81.2972 62.5566 83.2694 62.7359 84.3742 64.0627C85.4804 65.3887 85.3012 67.3608 83.9744 68.4656L65.4304 83.9159Z" fill="white"/>
<path d="M34.375 25H59.375C61.1008 25 62.5 26.3992 62.5 28.125C62.5 29.8508 61.1008 31.25 59.375 31.25H34.375C32.6492 31.25 31.25 29.8508 31.25 28.125C31.25 26.3992 32.6492 25 34.375 25Z" fill="#77959E"/>
<path d="M18.75 25H25V31.25H18.75V25Z" fill="#77959E"/>
<path d="M18.75 37.5H25V43.75H18.75V37.5Z" fill="#77959E"/>
<path d="M18.75 50H25V56.25H18.75V50Z" fill="#77959E"/>
<path d="M18.75 62.5H25V68.75H18.75V62.5Z" fill="#77959E"/>
<path d="M34.375 37.5H53.125C54.8508 37.5 56.25 38.8992 56.25 40.625C56.25 42.3508 54.8508 43.75 53.125 43.75H34.375C32.6492 43.75 31.25 42.3508 31.25 40.625C31.25 38.8992 32.6492 37.5 34.375 37.5Z" fill="#77959E"/>
<path d="M34.375 50H40.625C42.3508 50 43.75 51.3992 43.75 53.125C43.75 54.8508 42.3508 56.25 40.625 56.25H34.375C32.6492 56.25 31.25 54.8508 31.25 53.125C31.25 51.3992 32.6492 50 34.375 50Z" fill="#77959E"/>
</svg>
