<svg width="15" height="15" viewBox="0 0 15 15" fill="none" xmlns="http://www.w3.org/2000/svg">
<path d="M7.5 0C3.34091 0 0 3.34091 0 7.5C0 11.6591 3.34091 15 7.5 15C11.6591 15 15 11.6591 15 7.5C15 3.34091 11.6591 0 7.5 0ZM11.8295 5.14773L6.375 10.8068C6.30682 10.875 6.23864 10.9091 6.13636 10.9091C6.03409 10.9091 5.93182 10.875 5.89773 10.8068L3.23864 7.94318L3.17045 7.875C3.10227 7.80682 3.06818 7.70455 3.06818 7.63636C3.06818 7.56818 3.10227 7.46591 3.17045 7.39773L3.64773 6.92045C3.78409 6.78409 3.98864 6.78409 4.125 6.92045L4.15909 6.95455L6.03409 8.96591C6.10227 9.03409 6.20455 9.03409 6.27273 8.96591L10.8409 4.22727H10.875C11.0114 4.09091 11.2159 4.09091 11.3523 4.22727L11.8295 4.70455C11.9659 4.80682 11.9659 5.01136 11.8295 5.14773Z" fill="#03BD5B"/>
</svg>
