<?xml version="1.0"?>
<svg xmlns="http://www.w3.org/2000/svg" height="512px" viewBox="-34 0 468 468.356" width="512px" class=""><g><path d="m125.976562 133.863281c-.4375 19.402344 6.832032 38.191407 20.210938 52.246094 9.03125 9.433594 14.039062 22.011719 13.964844 35.070313h-.617188c-3.863281 0-7 3.132812-7 7 0 3.863281 3.136719 7 7 7h82.253906c3.863282 0 7-3.136719 7-7 0-3.867188-3.136718-7-7-7h-1.484374c-.214844-12 4.652343-24.730469 14.320312-34.847657 13.070312-13.855469 20.375-32.164062 20.4375-51.210937.21875-30.183594-17.898438-57.480469-45.792969-69.003906-27.898437-11.527344-60-4.972657-81.148437 16.566406-13.972656 13.976562-21.839844 32.082031-22.144532 51.179687zm0 0" data-original="#000000" class="active-path" data-old_color="#9aa5aa" fill="#9aa5aa"/><path d="m175.527344 250.179688c-3.863282 0-7 3.132812-7 7 0 3.863281 3.136718 7 7 7h50.269531c3.863281 0 7-3.136719 7-7 0-3.867188-3.136719-7-7-7zm0 0" data-original="#000000" class="active-path" data-old_color="#9aa5aa" fill="#9aa5aa"/><path d="m191.660156 34.988281c0 3.867188 3.136719 7 7 7 3.867188 0 7-3.132812 7-7v-27.988281c0-3.867188-3.132812-7-7-7-3.863281 0-7 3.132812-7 7zm0 0" data-original="#000000" class="active-path" data-old_color="#9aa5aa" fill="#9aa5aa"/><path d="m272.585938 70.066406 20.5625-19.421875c1.84375-1.710937 2.632812-4.28125 2.058593-6.730469-.574219-2.449218-2.421875-4.402343-4.832031-5.117187-2.414062-.710937-5.027344-.074219-6.839844 1.671875l-20.5625 19.417969c-1.847656 1.710937-2.632812 4.28125-2.058594 6.730469.574219 2.453124 2.417969 4.40625 4.832032 5.117187 2.414062.714844 5.023437.078125 6.839844-1.667969zm0 0" data-original="#000000" class="active-path" data-old_color="#9aa5aa" fill="#9aa5aa"/><path d="m117.96875 37.5c-2.714844-2.753906-7.148438-2.785156-9.898438-.070312-2.753906 2.710937-2.789062 7.144531-.074218 9.898437l19.707031 19.992187c1.753906 1.800782 4.335937 2.527344 6.765625 1.898438 2.433594-.625 4.34375-2.511719 5.007812-4.933594.660157-2.421875-.027343-5.015625-1.800781-6.792968zm0 0" data-original="#000000" class="active-path" data-old_color="#9aa5aa" fill="#9aa5aa"/><path d="m360.660156 374.167969c3.867188 0 7-3.132813 7-7v-32.667969c0-3.863281-2.796875-7.320312-6.664062-7.320312h-153.335938v-22.679688c0-3.863281-3.132812-7-7-7-3.863281 0-7 3.136719-7 7v22.679688h-153.332031c-3.867187 0-6.667969 3.457031-6.667969 7.320312v32.667969c0 3.867187 3.136719 7 7 7 3.867188 0 7-3.132813 7-7v-25.988281h146v25.988281c0 3.867187 3.136719 7 7 7 3.867188 0 7-3.132813 7-7v-25.988281h146v25.988281c0 3.867187 3.136719 7 7 7zm0 0" data-original="#000000" class="active-path" data-old_color="#9aa5aa" fill="#9aa5aa"/><path d="m241.144531 427.871094c0 22.359375-18.125 40.484375-40.484375 40.484375-22.355468 0-40.480468-18.125-40.480468-40.484375s18.125-40.484375 40.480468-40.484375c22.359375 0 40.484375 18.125 40.484375 40.484375zm0 0" data-original="#000000" class="active-path" data-old_color="#9aa5aa" fill="#9aa5aa"/><path d="m401.144531 427.871094c0 22.359375-18.125 40.484375-40.484375 40.484375-22.355468 0-40.480468-18.125-40.480468-40.484375s18.125-40.484375 40.480468-40.484375c22.359375 0 40.484375 18.125 40.484375 40.484375zm0 0" data-original="#000000" class="active-path" data-old_color="#9aa5aa" fill="#9aa5aa"/><path d="m81.144531 427.871094c0 22.359375-18.125 40.484375-40.484375 40.484375-22.355468 0-40.480468-18.125-40.480468-40.484375s18.125-40.484375 40.480468-40.484375c22.359375 0 40.484375 18.125 40.484375 40.484375zm0 0" data-original="#000000" class="active-path" data-old_color="#9aa5aa" fill="#9aa5aa"/></g> </svg>
