<svg width="35" height="35" viewBox="0 0 35 35" fill="none" xmlns="http://www.w3.org/2000/svg">
<g clip-path="url(#clip0)">
<path d="M21.6186 7.55127C20.5559 7.55127 19.6914 8.41544 19.6914 9.47849C19.6917 10.541 20.5561 11.4052 21.6186 11.4052C22.6811 11.4052 23.5459 10.5413 23.5459 9.47849C23.5459 8.41571 22.6814 7.55127 21.6186 7.55127Z" fill="#A8A8A8"/>
<path d="M17.5118 19.8682C14.0402 19.8682 11.2266 22.6821 11.2266 26.1529C11.2266 29.624 14.0402 32.4382 17.5118 32.4382C20.9835 32.4382 23.7974 29.624 23.7974 26.1529C23.7974 22.6821 20.9835 19.8682 17.5118 19.8682ZM21.0524 26.8979H18.3207V29.6996C18.3207 30.1493 17.9502 30.5151 17.5005 30.5151C17.0507 30.5151 16.6802 30.1496 16.6802 29.6996V26.8979H13.9599C13.5102 26.8979 13.1441 26.5273 13.1441 26.0776C13.1441 25.6279 13.5099 25.2573 13.9599 25.2573H16.6802V22.6068C16.6802 22.1573 17.0507 21.7912 17.5005 21.7912C17.9502 21.7912 18.3207 22.1571 18.3207 22.6068V25.2573H21.0524C21.5021 25.2573 21.8682 25.6279 21.8682 26.0776C21.8682 26.5273 21.5021 26.8979 21.0524 26.8979Z" fill="#A8A8A8"/>
<path d="M33.6358 2.56201H1.38722C0.633333 2.56201 0 3.2334 0 3.98729V24.7856C0 25.5398 0.633333 26.0773 1.38722 26.0773H9.58555C9.58555 21.7023 13.1411 18.152 17.5114 18.152C21.8819 18.152 25.4375 21.7023 25.4375 26.0773H33.6358C34.3897 26.0773 35 25.5395 35 24.7856V3.98729C35 3.2334 34.3897 2.56201 33.6358 2.56201ZM27.1875 11.9828L22.0169 17.1545L14.1467 9.28535C14.0397 9.1784 13.8672 9.1784 13.7603 9.28535L8.76833 14.277L6.48944 11.9984C6.38277 11.8915 6.19972 11.8915 6.09305 11.9984L2.46083 15.6206V5.02285H32.5389V16.9498L27.5736 11.9828C27.4667 11.8759 27.2944 11.8759 27.1875 11.9828Z" fill="#A8A8A8"/>
</g>
<defs>
<clipPath id="clip0">
<rect width="35" height="35" fill="white"/>
</clipPath>
</defs>
</svg>
