<svg width="18" height="20" viewBox="0 0 18 20" fill="none" xmlns="http://www.w3.org/2000/svg">
<path d="M0.833008 13.9585V19.6252C0.833008 19.8093 0.98226 19.9586 1.16634 19.9586H3.83302C4.0171 19.9586 4.16635 19.8093 4.16635 19.6252V19.0121L10.4504 19.9548C10.4667 19.9573 10.4831 19.9584 10.4997 19.9586C10.542 19.9586 10.584 19.9504 10.6234 19.9348L16.6664 17.5181C17.2575 17.2807 17.5967 16.6568 17.4745 16.0316C17.3524 15.4063 16.8034 14.9559 16.1664 14.9586C16.1428 14.9584 16.1194 14.9608 16.0964 14.9659L15.8331 15.0225V4.62518C15.8331 4.51369 15.7774 4.40968 15.6846 4.34784L14.6846 3.68117C14.5726 3.6063 14.4266 3.6063 14.3147 3.68117L13.3147 4.34784C13.222 4.40968 13.1664 4.51369 13.1664 4.62518V7.44973C12.967 7.23717 12.7432 7.04902 12.4997 6.88918V3.29184H13.1664C13.3012 3.29168 13.4227 3.21046 13.4742 3.08595C13.5258 2.96144 13.4973 2.81804 13.4021 2.72283L10.7354 0.0561527C10.6052 -0.0740561 10.3942 -0.0740561 10.264 0.0561527L7.59735 2.72283C7.50198 2.81804 7.47349 2.96144 7.52509 3.08595C7.57668 3.21046 7.69827 3.29168 7.83303 3.29184H8.4997V6.88918C8.25605 7.04902 8.03225 7.23717 7.83303 7.44973V6.29185C7.83303 6.18036 7.77737 6.07636 7.6846 6.01451L6.68459 5.34784C6.57261 5.27297 6.42662 5.27297 6.31464 5.34784L5.31463 6.01451C5.22202 6.07636 5.16636 6.18036 5.16636 6.29185V13.1584C4.77589 13.3182 4.42824 13.5673 4.1517 13.8858C4.1198 13.7349 3.98715 13.6265 3.83302 13.6252H1.16634C0.98226 13.6252 0.833008 13.7743 0.833008 13.9585ZM13.8331 4.8034L14.4997 4.35841L15.1664 4.80275V15.1651L13.8331 15.4507V11.4771C14.2774 10.5134 14.2774 9.40352 13.8331 8.43981V4.8034ZM11.7663 15.8938C11.5936 15.3389 11.0808 14.9603 10.4997 14.9586H9.16637V13.3705C10.0228 13.71 10.9766 13.71 11.833 13.3705V15.8795L11.7663 15.8938ZM8.4997 13.0271V14.3418C8.33043 14.0378 8.10419 13.7694 7.83303 13.5515V12.4672C8.03225 12.6797 8.25605 12.8679 8.4997 13.0279V13.0271ZM12.4997 13.0271C12.7432 12.8672 12.967 12.6791 13.1664 12.4665V15.5932L12.4997 15.7362V13.0271ZM8.83304 2.62517H8.63772L10.4997 0.763024L12.3617 2.62517H12.1664C11.9823 2.62517 11.833 2.77426 11.833 2.95851V6.54641C10.9766 6.20689 10.0228 6.20689 9.16637 6.54641V2.95851C9.16637 2.77426 9.01712 2.62517 8.83304 2.62517ZM10.4997 6.95852C12.1565 6.95852 13.4997 8.30163 13.4997 9.95853C13.4997 11.6153 12.1565 12.9585 10.4997 12.9585C8.8428 12.9585 7.4997 11.6153 7.4997 9.95853C7.50165 8.30244 8.84362 6.96047 10.4997 6.95852ZM5.83303 6.47008L6.49969 6.02509L7.16636 6.46942V8.43916C6.72186 9.40287 6.72186 10.5127 7.16636 11.4764V13.1584C6.74579 12.981 6.28518 12.9203 5.83303 12.9825V6.47008ZM6.16636 13.6252C7.15823 13.6296 7.99824 14.3578 8.14326 15.3391C8.16686 15.5031 8.30732 15.6251 8.47301 15.6252H10.4997C10.8679 15.6252 11.1664 15.9236 11.1664 16.2919C11.1664 16.6601 10.8679 16.9586 10.4997 16.9586H7.83303V17.6252H10.4997C11.1293 17.6241 11.6727 17.1833 11.8038 16.5674L16.1998 15.6252C16.5106 15.6381 16.7706 15.8663 16.8235 16.1731C16.8765 16.4797 16.7084 16.782 16.4197 16.8985L10.4597 19.2821L4.16635 18.3381V15.4221C4.17758 15.3956 4.1854 15.3677 4.1893 15.3391C4.33432 14.3578 5.17433 13.6296 6.16636 13.6252ZM1.49968 14.2919H3.49968V19.2919H1.49968V14.2919Z" fill="black"/>
</svg>
