<svg width="32" height="32" viewBox="0 0 32 32" fill="none" xmlns="http://www.w3.org/2000/svg">
<path fill-rule="evenodd" clip-rule="evenodd" d="M16 32C7.16338 32 0 24.8366 0 16C0 7.16338 7.16338 0 16 0C24.8366 0 32 7.16338 32 16C32 24.8366 24.8366 32 16 32Z" fill="#0077B5"/>
<g clip-path="url(#clip0)">
<path d="M13.2715 14.3267H11.123V20.7784H13.2715V14.3267Z" fill="white"/>
<path d="M20.323 14.9158C19.8717 14.4231 19.2748 14.1768 18.5327 14.1768C18.2593 14.1768 18.0107 14.2104 17.7872 14.2777C17.5637 14.345 17.3749 14.4394 17.2208 14.5609C17.0667 14.6824 16.9441 14.7953 16.853 14.8994C16.7664 14.9983 16.6817 15.1135 16.599 15.2438V14.3264H14.457L14.4636 14.6389C14.468 14.8473 14.4702 15.4897 14.4702 16.566C14.4702 17.6424 14.4658 19.0464 14.4571 20.7782H16.599V17.1779C16.599 16.9566 16.6228 16.7809 16.6706 16.6505C16.7618 16.4291 16.8995 16.2437 17.0841 16.094C17.2686 15.9441 17.4975 15.8693 17.771 15.8693C18.1442 15.8693 18.4188 15.9984 18.5946 16.2566C18.7703 16.5148 18.8582 16.8718 18.8582 17.3276V20.778H21.0002V17.0804C21 16.1297 20.7745 15.4082 20.323 14.9158Z" fill="white"/>
<path d="M12.2109 11.2212C11.8507 11.2212 11.5589 11.3265 11.3353 11.537C11.1117 11.7475 11 12.0132 11 12.3345C11 12.6512 11.1085 12.9161 11.3255 13.1287C11.5425 13.3413 11.829 13.4477 12.1849 13.4477H12.1979C12.5625 13.4477 12.8566 13.3414 13.0801 13.1287C13.3036 12.9161 13.4131 12.6513 13.4088 12.3345C13.4045 12.0132 13.2938 11.7475 13.0768 11.537C12.8599 11.3264 12.5711 11.2212 12.2109 11.2212Z" fill="white"/>
</g>
<defs>
<clipPath id="clip0">
<rect width="10" height="10" fill="white" transform="translate(11 11)"/>
</clipPath>
</defs>
</svg>
