<svg width="32" height="32" viewBox="0 0 32 32" fill="none" xmlns="http://www.w3.org/2000/svg">
<path fill-rule="evenodd" clip-rule="evenodd" d="M32 16C32 24.8366 24.8366 32 16 32C7.16338 32 0 24.8366 0 16C0 7.16338 7.16338 0 16 0C24.8366 0 32 7.16338 32 16Z" fill="#354053"/>
<path d="M11.9598 14.4936C12.0863 14.5829 12.4676 14.848 13.1038 15.2889C13.7399 15.7297 14.2273 16.0691 14.5658 16.3072C14.603 16.3332 14.682 16.39 14.8029 16.4774C14.9238 16.5649 15.0243 16.6356 15.1042 16.6895C15.1842 16.7434 15.281 16.8039 15.3945 16.8708C15.508 16.9377 15.6149 16.988 15.7154 17.0213C15.8158 17.0549 15.9088 17.0715 15.9944 17.0715H16H16.0056C16.0912 17.0715 16.1842 17.0549 16.2847 17.0213C16.3851 16.988 16.4922 16.9377 16.6055 16.8708C16.719 16.8038 16.8157 16.7434 16.8957 16.6895C16.9757 16.6356 17.0761 16.5649 17.197 16.4774C17.3179 16.3899 17.397 16.3332 17.4342 16.3072C17.7764 16.0691 18.647 15.4645 20.0458 14.4935C20.3174 14.3039 20.5442 14.075 20.7265 13.8072C20.9089 13.5394 21 13.2585 21 12.9647C21 12.7191 20.9116 12.5089 20.7349 12.334C20.5582 12.1592 20.3489 12.0718 20.1071 12.0718H11.8928C11.6064 12.0718 11.3859 12.1685 11.2316 12.3619C11.0772 12.5554 11 12.7972 11 13.0873C11 13.3217 11.1023 13.5757 11.3069 13.8491C11.5115 14.1226 11.7292 14.3374 11.9598 14.4936Z" fill="white"/>
<path d="M20.4419 15.0905C19.2218 15.9163 18.2953 16.5581 17.663 17.0157C17.4509 17.1719 17.2789 17.2938 17.1468 17.3812C17.0147 17.4686 16.839 17.5579 16.6194 17.649C16.4 17.7402 16.1955 17.7857 16.0057 17.7857H16H15.9944C15.8047 17.7857 15.6 17.7402 15.3806 17.649C15.1611 17.5579 14.9853 17.4686 14.8532 17.3812C14.7212 17.2938 14.5491 17.1719 14.3371 17.0157C13.8348 16.6474 12.9104 16.0056 11.5637 15.0905C11.3516 14.9492 11.1637 14.7872 11 14.605V19.0357C11 19.2813 11.0874 19.4914 11.2623 19.6663C11.4371 19.8412 11.6473 19.9286 11.8929 19.9286H20.1072C20.3527 19.9286 20.5629 19.8412 20.7377 19.6663C20.9126 19.4914 21 19.2814 21 19.0357V14.605C20.84 14.7835 20.654 14.9454 20.4419 15.0905Z" fill="white"/>
</svg>
