<?xml version="1.0"?>
<svg xmlns="http://www.w3.org/2000/svg" xmlns:xlink="http://www.w3.org/1999/xlink" version="1.1" id="Layer_1" x="0px" y="0px" viewBox="0 0 469.333 469.333" style="enable-background:new 0 0 469.333 469.333;" xml:space="preserve" width="512px" height="512px" class=""><g><g>
	<g>
		<g>
			<path d="M234.667,106.667c29.406,0,53.333-23.927,53.333-53.333S264.073,0,234.667,0s-53.333,23.927-53.333,53.333     S205.26,106.667,234.667,106.667z M234.667,21.333c17.646,0,32,14.354,32,32c0,17.646-14.354,32-32,32s-32-14.354-32-32     C202.667,35.687,217.021,21.333,234.667,21.333z" data-original="#000000" class="active-path" data-old_color="#9aa5aa" fill="#9aa5aa"/>
			<path d="M161.521,213.333h146.292c12.604,0,22.854-11.063,22.854-24.667v-6.833c0-17.823-8.823-34.104-23.042-42.49     c-17.031-10.042-43.51-22.01-72.958-22.01s-55.927,11.969-72.958,22.01c-14.219,8.385-23.042,24.667-23.042,42.49v6.833     C138.667,202.271,148.917,213.333,161.521,213.333z M160,181.833c0-10.156,4.927-19.615,12.542-24.115     c14.74-8.688,37.49-19.052,62.125-19.052s47.385,10.365,62.125,19.052c7.615,4.5,12.542,13.958,12.542,24.115v6.833     c0,2.219-1.26,3.333-1.521,3.333H161.521c-0.26,0-1.521-1.115-1.521-3.333V181.833z" data-original="#000000" class="active-path" data-old_color="#9aa5aa" fill="#9aa5aa"/>
			<path d="M96,362.667c29.406,0,53.333-23.927,53.333-53.333S125.406,256,96,256s-53.333,23.927-53.333,53.333     S66.594,362.667,96,362.667z M96,277.333c17.646,0,32,14.354,32,32c0,17.646-14.354,32-32,32c-17.646,0-32-14.354-32-32     C64,291.687,78.354,277.333,96,277.333z" data-original="#000000" class="active-path" data-old_color="#9aa5aa" fill="#9aa5aa"/>
			<path d="M168.958,395.344c-17.031-10.042-43.51-22.01-72.958-22.01c-29.448,0-55.927,11.969-72.958,22.01     C8.823,403.729,0,420.01,0,437.833v6.833c0,13.604,10.25,24.667,22.854,24.667h146.292c12.604,0,22.854-11.063,22.854-24.667     v-6.833C192,420.01,183.177,403.729,168.958,395.344z M170.667,444.667c0,2.219-1.26,3.333-1.521,3.333H22.854     c-0.26,0-1.521-1.115-1.521-3.333v-6.833c0-10.156,4.927-19.615,12.542-24.115c14.74-8.688,37.49-19.052,62.125-19.052     c24.635,0,47.385,10.365,62.125,19.052c7.615,4.5,12.542,13.958,12.542,24.115V444.667z" data-original="#000000" class="active-path" data-old_color="#9aa5aa" fill="#9aa5aa"/>
			<path d="M373.333,362.667c29.406,0,53.333-23.927,53.333-53.333S402.74,256,373.333,256S320,279.927,320,309.333     S343.927,362.667,373.333,362.667z M373.333,277.333c17.646,0,32,14.354,32,32c0,17.646-14.354,32-32,32s-32-14.354-32-32     C341.333,291.687,355.688,277.333,373.333,277.333z" data-original="#000000" class="active-path" data-old_color="#9aa5aa" fill="#9aa5aa"/>
			<path d="M446.292,395.344c-17.031-10.042-43.51-22.01-72.958-22.01s-55.927,11.969-72.958,22.01     c-14.219,8.385-23.042,24.667-23.042,42.49v6.833c0,13.604,10.25,24.667,22.854,24.667h146.292     c12.604,0,22.854-11.063,22.854-24.667v-6.833C469.333,420.01,460.51,403.729,446.292,395.344z M448,444.667     c0,2.219-1.26,3.333-1.521,3.333H300.187c-0.26,0-1.521-1.115-1.521-3.333v-6.833c0-10.156,4.927-19.615,12.542-24.115     c14.74-8.688,37.49-19.052,62.125-19.052s47.385,10.365,62.125,19.052c7.615,4.5,12.542,13.958,12.542,24.115V444.667z" data-original="#000000" class="active-path" data-old_color="#9aa5aa" fill="#9aa5aa"/>
			<path d="M287.99,362.667c3.135,0,6.229-1.375,8.344-4c3.677-4.604,2.927-11.313-1.667-15l-49.333-39.466v-58.867     c0-5.896-4.771-10.667-10.667-10.667S224,239.437,224,245.333v58.875l-49.333,39.458c-4.594,3.688-5.344,10.396-1.667,15     c2.115,2.625,5.208,4,8.344,4c2.333,0,4.688-0.76,6.656-2.333L234.667,323l46.666,37.333     C283.302,361.906,285.656,362.667,287.99,362.667z" data-original="#000000" class="active-path" data-old_color="#9aa5aa" fill="#9aa5aa"/>
		</g>
	</g>
</g></g> </svg>
