<svg width="20" height="20" viewBox="0 0 20 20" fill="none" xmlns="http://www.w3.org/2000/svg">
<g clip-path="url(#clip0)">
<path d="M15.4943 17.1975H4.36319C4.05374 17.1975 3.80273 16.9467 3.80273 16.6371V1.90225C3.80273 1.5928 4.05374 1.3418 4.36319 1.3418H15.4943C15.8039 1.3418 16.0549 1.5928 16.0549 1.90225V16.6371C16.0549 16.9467 15.8039 17.1975 15.4943 17.1975Z" fill="#A77554"/>
<path d="M15.3343 1.3418V16.0764C15.3343 16.2975 15.155 16.4768 14.9339 16.4768H3.80273V16.6371C3.80273 16.9465 4.05359 17.1975 4.36319 17.1975H15.4943C15.8039 17.1975 16.0549 16.9465 16.0549 16.6371V1.90225C16.0549 1.5928 15.8039 1.3418 15.4943 1.3418H15.3343Z" fill="#915431"/>
<path d="M5.16406 15.4359V1.3418H14.6936V15.4359C14.6936 15.657 14.5143 15.8363 14.2932 15.8363H5.56445C5.34335 15.8363 5.16406 15.657 5.16406 15.4359Z" fill="#DDF5FF"/>
<path d="M14.0129 1.3418V15.8363H14.2932C14.5143 15.8363 14.6936 15.657 14.6936 15.4359V1.3418H14.0129Z" fill="#C1E9F4"/>
<path d="M15.9349 20H5.22854C4.89986 20 4.57928 19.8989 4.30996 19.7106L3.75759 19.3238C3.6433 19.2438 3.6433 19.0746 3.75759 18.9946L4.30996 18.6078C4.57928 18.4194 4.89986 18.3184 5.22854 18.3184H15.9349C16.156 18.3184 16.3353 18.4977 16.3353 18.7188V19.5996C16.3353 19.8207 16.156 20 15.9349 20Z" fill="#495959"/>
<path d="M15.9349 19.3605H5.22854C4.89986 19.3605 4.57928 19.2593 4.30996 19.0709L3.98006 18.8398L3.75759 18.9956C3.6433 19.0756 3.6433 19.2448 3.75759 19.3248L4.30996 19.7116C4.57928 19.8999 4.89986 20.001 5.22839 20.001H15.9349C16.156 20.001 16.3353 19.8217 16.3353 19.6006V18.9601C16.3353 19.1812 16.156 19.3605 15.9349 19.3605Z" fill="#3F4A4A"/>
<path d="M13.6125 18.3184H14.8938V20H13.6125V18.3184Z" fill="#FFE046"/>
<path d="M13.6125 19.3594H14.8938V19.9999H13.6125V19.3594Z" fill="#EEC707"/>
<path d="M6.68555 2.44247C6.51968 2.44247 6.38525 2.30804 6.38525 2.14218V0.300293C6.38525 0.13443 6.51968 0 6.68555 0C6.85141 0 6.98584 0.13443 6.98584 0.300293V2.14218C6.98584 2.30804 6.85141 2.44247 6.68555 2.44247Z" fill="#495959"/>
<path d="M8.36719 2.44247C8.20132 2.44247 8.06689 2.30804 8.06689 2.14218V0.300293C8.06689 0.13443 8.20132 0 8.36719 0C8.53305 0 8.66748 0.13443 8.66748 0.300293V2.14218C8.66748 2.30804 8.53305 2.44247 8.36719 2.44247Z" fill="#495959"/>
<path d="M9.92871 2.44247C9.76285 2.44247 9.62842 2.30804 9.62842 2.14218V0.300293C9.62842 0.13443 9.76285 0 9.92871 0C10.0946 0 10.229 0.13443 10.229 0.300293V2.14218C10.229 2.30804 10.0946 2.44247 9.92871 2.44247Z" fill="#495959"/>
<path d="M11.4904 2.44247C11.3245 2.44247 11.1899 2.30804 11.1899 2.14218V0.300293C11.1899 0.13443 11.3244 0 11.4904 0C11.6563 0 11.7907 0.13443 11.7907 0.300293V2.14218C11.7907 2.30804 11.6563 2.44247 11.4904 2.44247Z" fill="#495959"/>
<path d="M13.092 2.44247C12.9262 2.44247 12.7917 2.30804 12.7917 2.14218V0.300293C12.7917 0.13443 12.9262 0 13.092 0C13.2579 0 13.3923 0.13443 13.3923 0.300293V2.14218C13.3923 2.30804 13.2579 2.44247 13.092 2.44247Z" fill="#495959"/>
<path d="M13.1319 4.44434H12.1709C12.005 4.44434 11.8706 4.30991 11.8706 4.14404C11.8706 3.97818 12.005 3.84375 12.1709 3.84375H13.1319C13.2978 3.84375 13.4322 3.97818 13.4322 4.14404C13.4322 4.30991 13.2978 4.44434 13.1319 4.44434Z" fill="#495959"/>
<path d="M10.9698 4.44434H6.72559C6.55972 4.44434 6.42529 4.30991 6.42529 4.14404C6.42529 3.97818 6.55972 3.84375 6.72559 3.84375H10.9698C11.1357 3.84375 11.2703 3.97818 11.2703 4.14404C11.2703 4.30991 11.1357 4.44434 10.9698 4.44434Z" fill="#495959"/>
<path d="M13.1319 6.0459H12.1709C12.005 6.0459 11.8706 5.91147 11.8706 5.74561C11.8706 5.57974 12.005 5.44531 12.1709 5.44531H13.1319C13.2978 5.44531 13.4322 5.57974 13.4322 5.74561C13.4322 5.91147 13.2978 6.0459 13.1319 6.0459Z" fill="#495959"/>
<path d="M10.9698 6.0459H6.72559C6.55972 6.0459 6.42529 5.91147 6.42529 5.74561C6.42529 5.57974 6.55972 5.44531 6.72559 5.44531H10.9698C11.1357 5.44531 11.2703 5.57974 11.2703 5.74561C11.2703 5.91147 11.1357 6.0459 10.9698 6.0459Z" fill="#495959"/>
<path d="M13.1319 7.64761H12.1709C12.005 7.64761 11.8706 7.51318 11.8706 7.34732C11.8706 7.18146 12.005 7.04688 12.1709 7.04688H13.1319C13.2978 7.04688 13.4322 7.18146 13.4322 7.34732C13.4322 7.51318 13.2978 7.64761 13.1319 7.64761Z" fill="#495959"/>
<path d="M10.9698 7.64761H6.72559C6.55972 7.64761 6.42529 7.51318 6.42529 7.34732C6.42529 7.18146 6.55972 7.04688 6.72559 7.04688H10.9698C11.1357 7.04688 11.2703 7.18146 11.2703 7.34732C11.2703 7.51318 11.1357 7.64761 10.9698 7.64761Z" fill="#495959"/>
<path d="M13.1319 9.24902H12.1709C12.005 9.24902 11.8706 9.11459 11.8706 8.94873C11.8706 8.78287 12.005 8.64844 12.1709 8.64844H13.1319C13.2978 8.64844 13.4322 8.78287 13.4322 8.94873C13.4322 9.11459 13.2978 9.24902 13.1319 9.24902Z" fill="#495959"/>
<path d="M10.9698 9.24902H6.72559C6.55972 9.24902 6.42529 9.11459 6.42529 8.94873C6.42529 8.78287 6.55972 8.64844 6.72559 8.64844H10.9698C11.1357 8.64844 11.2703 8.78287 11.2703 8.94873C11.2703 9.11459 11.1357 9.24902 10.9698 9.24902Z" fill="#495959"/>
<path d="M13.1319 10.8506H12.1709C12.005 10.8506 11.8706 10.7162 11.8706 10.5503C11.8706 10.3844 12.005 10.25 12.1709 10.25H13.1319C13.2978 10.25 13.4322 10.3844 13.4322 10.5503C13.4322 10.7162 13.2978 10.8506 13.1319 10.8506Z" fill="#495959"/>
<path d="M10.9698 10.8506H6.72559C6.55972 10.8506 6.42529 10.7162 6.42529 10.5503C6.42529 10.3844 6.55972 10.25 6.72559 10.25H10.9698C11.1357 10.25 11.2703 10.3844 11.2703 10.5503C11.2703 10.7162 11.1357 10.8506 10.9698 10.8506Z" fill="#495959"/>
<path d="M14.0532 19.46H10.97C10.8041 19.46 10.6697 19.3255 10.6697 19.1597C10.6697 18.9938 10.8041 18.8594 10.97 18.8594H14.0532C14.219 18.8594 14.3535 18.9938 14.3535 19.1597C14.3535 19.3255 14.219 19.46 14.0532 19.46Z" fill="#FFE046"/>
</g>
<defs>
<clipPath id="clip0">
<rect width="20" height="20" fill="white"/>
</clipPath>
</defs>
</svg>
