<svg width="30" height="30" viewBox="0 0 30 30" fill="none" xmlns="http://www.w3.org/2000/svg">
<g clip-path="url(#clip0)">
<path d="M11.8904 8.82324C10.9362 8.82324 10.1631 9.42484 10.1631 10.1667V19.8327C10.1631 20.5751 10.9362 21.1762 11.8904 21.1762C12.8445 21.1762 13.6176 20.5749 13.6176 19.8327V10.1667C13.6176 9.42457 12.8449 8.82324 11.8904 8.82324Z" fill="#2284C3"/>
<path d="M18.1081 8.82324C17.154 8.82324 16.3809 9.42484 16.3809 10.1667V19.8327C16.3809 20.5749 17.154 21.1762 18.1081 21.1762C19.0623 21.1762 19.8354 20.5749 19.8354 19.8327V10.1667C19.8354 9.42484 19.0623 8.82324 18.1081 8.82324Z" fill="#2284C3"/>
</g>
<defs>
<clipPath id="clip0">
<rect width="15.8824" height="12.3529" fill="white" transform="translate(7.05859 8.82324)"/>
</clipPath>
</defs>
</svg>
