<svg width="35" height="30" viewBox="0 0 35 30" fill="none" xmlns="http://www.w3.org/2000/svg">
<path fill-rule="evenodd" clip-rule="evenodd" d="M2.76973 16.7325C1.08577 15.8478 0.319498 13.9099 1.06171 12.2031L5.37916 2.27821C6.18718 0.420766 8.48813 -0.485617 10.4912 0.262469L31.5761 8.13906C33.5799 8.88843 34.5577 11.0203 33.7497 12.8765L32.9438 14.7289" fill="#186BFE" fill-opacity="0.5"/>
<path fill-rule="evenodd" clip-rule="evenodd" d="M33.1149 26.3608C33.1149 28.3618 31.3482 30.0003 29.188 30.0003H6.45386C4.29514 30.0003 2.52698 28.3618 2.52698 26.3608V15.6578C2.52698 13.6567 4.29514 12.0176 6.45386 12.0176H29.188C31.3482 12.0176 33.1149 13.6567 33.1149 15.6578V26.3608Z" fill="#00B4FE"/>
<path fill-rule="evenodd" clip-rule="evenodd" d="M20.8743 27.207C23.0171 27.207 24.7541 25.64 24.7541 23.707C24.7541 21.774 23.0171 20.207 20.8743 20.207C18.7316 20.207 16.9946 21.774 16.9946 23.707C16.9946 25.64 18.7316 27.207 20.8743 27.207Z" fill="#FE685A"/>
<path fill-rule="evenodd" clip-rule="evenodd" d="M26.1962 27.207C28.339 27.207 30.076 25.64 30.076 23.707C30.076 21.774 28.339 20.207 26.1962 20.207C24.0535 20.207 22.3165 21.774 22.3165 23.707C22.3165 25.64 24.0535 27.207 26.1962 27.207Z" fill="#FEA400"/>
</svg>
