<svg width="30" height="30" viewBox="0 0 30 30" fill="none" xmlns="http://www.w3.org/2000/svg">
<path d="M15 0C6.71529 0 0 6.71529 0 15C0 23.2847 6.71529 30 15 30C23.2837 30 30 23.2847 30 15C30 6.71529 23.2837 0 15 0ZM15 26.25C8.79657 26.25 3.75 21.2034 3.75 15C3.75 8.79657 8.79657 3.75 15 3.75C21.2034 3.75 26.25 8.79657 26.25 15C26.25 21.2034 21.2034 26.25 15 26.25ZM20.6438 13.125H16.875V9.35627C16.875 8.33064 16.0434 7.5 15.0188 7.5H14.9813C13.9556 7.5 13.125 8.33064 13.125 9.35627V13.125H9.35627C8.33064 13.125 7.5 13.9566 7.5 14.9813V15.0188C7.5 16.0444 8.33064 16.875 9.35627 16.875H13.125V20.6438C13.125 21.6695 13.9556 22.5 14.9813 22.5H15.0188C16.0444 22.5 16.875 21.6695 16.875 20.6438V16.875H20.6438C21.6694 16.875 22.5 16.0444 22.5 15.0187V14.9812C22.5 13.9566 21.6684 13.125 20.6438 13.125Z" fill="#2080BF"/>
</svg>
