<svg width="87" height="39" viewBox="0 0 87 39" fill="none" xmlns="http://www.w3.org/2000/svg">
<path d="M30.5279 31.387C30.5279 29.1396 29.1233 27.8052 27.3675 27.8052C25.6117 27.8052 24.2071 29.1396 24.2071 31.387C24.2071 33.6344 25.5415 35.1093 27.3675 35.1093C29.2638 35.1093 30.5279 33.6344 30.5279 31.387ZM20.8359 31.387C20.8359 27.3838 23.575 24.8555 27.4377 24.8555C31.3005 24.8555 34.0395 27.3838 34.0395 31.387C34.0395 35.3902 31.3707 37.9888 27.3675 37.9888C23.4345 37.9888 20.8359 35.3902 20.8359 31.387Z" fill="black"/>
<path d="M45.9079 37.8484C45.1354 37.8484 44.714 37.427 44.714 36.6545V30.6146C44.714 29.0695 44.2223 27.9458 42.607 27.9458C40.8512 27.9458 40.3596 29.4908 40.3596 29.6313V35.1094H41.4131C41.694 35.1094 41.7642 35.1796 41.7642 35.4606V37.4973C41.7642 37.708 41.6238 37.8484 41.4131 37.8484H35.7945C35.5838 37.8484 35.4434 37.708 35.4434 37.4973V35.4606C35.4434 35.1796 35.5838 35.1094 35.7945 35.1094H37.0587V27.8053H35.7945C35.5838 27.8053 35.4434 27.7351 35.4434 27.4541V25.4174C35.4434 25.2067 35.5838 25.0662 35.7945 25.0662H39.587C39.7977 25.0662 39.9382 25.2067 39.9382 25.4174V27.103H40.0084C40.1489 26.8923 40.9214 24.9258 43.8009 24.9258C46.54 24.9258 48.0851 26.822 48.0851 29.4909V35.1094H49.3493C49.56 35.1094 49.7004 35.1796 49.7004 35.4606V37.4973C49.7004 37.708 49.56 37.8484 49.3493 37.8484H45.9079Z" fill="black"/>
<path d="M59.8839 31.5276C59.8839 29.1397 58.5495 27.8755 56.9341 27.8755C55.1081 27.8755 53.9142 29.3504 53.9142 31.5978C53.9142 33.775 55.2486 35.1796 56.9341 35.1796C58.4792 35.1094 59.8839 33.9155 59.8839 31.5276ZM61.429 37.8484C60.6564 37.8484 60.235 37.427 60.235 36.6545V35.601H60.1648C59.8136 36.514 58.7602 38.0591 56.3021 38.0591C52.7905 38.0591 50.6133 35.3903 50.6133 31.5276C50.6133 27.3137 53.0012 24.9258 56.3723 24.9258C58.7602 24.9258 59.9541 26.2602 60.1648 26.7518H60.235V25.5579C60.235 25.3472 60.3755 25.2067 60.5862 25.2067H62.9038C63.1145 25.2067 63.255 25.3472 63.255 25.5579V35.1796H64.5192C64.7299 35.1796 64.8703 35.2499 64.8703 35.5308V37.5675C64.8703 37.7782 64.7299 37.9187 64.5192 37.9187L61.429 37.8484Z" fill="black"/>
<path d="M74.7738 35.952C74.9142 36.0924 74.844 36.3734 74.7035 36.5841C74.2119 37.0054 73.2287 37.9887 71.2622 37.9887C68.2422 37.9887 66.5567 36.3031 66.5567 33.0725V27.8051H65.2925C65.0818 27.8051 64.8711 27.6646 64.8711 27.3837V25.4874C64.8711 25.2767 65.0116 25.066 65.2925 25.066H66.4864V22.1865C66.4864 21.9758 66.6269 21.7651 66.9078 21.7651H69.5064C69.7171 21.7651 69.9278 21.9056 69.9278 22.1865V25.066H73.0882C73.2989 25.066 73.5096 25.2065 73.5096 25.4874V27.3837C73.5096 27.5944 73.3691 27.8051 73.0882 27.8051H69.9278V33.0725C69.9278 34.1962 70.4194 35.0389 71.6133 35.0389C72.4561 35.0389 72.8073 34.6878 73.0882 34.4771C73.2287 34.3366 73.5096 34.3366 73.6501 34.5473L74.7738 35.952Z" fill="black"/>
<path d="M83.763 29.9823C83.6928 28.7884 82.9905 27.5944 81.1645 27.5944C79.6896 27.5944 78.5659 28.367 78.285 29.9823H83.763ZM78.2147 32.019C78.4254 34.1962 79.9705 35.1092 81.5858 35.1092C83.6928 35.1092 84.957 33.7046 85.0974 33.4237C85.2379 33.2832 85.4486 33.213 85.6593 33.3534L86.8532 34.6878C86.9937 34.8985 87.0639 35.039 86.9235 35.2497C86.6425 35.6711 84.8867 37.9185 81.3049 37.9185C77.7231 37.9185 74.7031 35.5306 74.7031 31.3167C74.7031 27.1028 77.9338 24.7852 81.024 24.7852C85.0272 24.7852 86.9937 27.173 86.9937 31.4572C86.9937 31.6679 86.8532 31.8786 86.5723 31.8786H78.2147V32.019Z" fill="black"/>
<path d="M0.609053 37.5673C0.398358 37.5673 0.328125 37.4269 0.328125 37.2162V35.039C0.328125 34.8283 0.398358 34.6878 0.609053 34.6878H1.80299V27.8754H0.609053C0.398358 27.8754 0.328125 27.8051 0.328125 27.5242V25.5577C0.328125 25.347 0.398358 25.2065 0.609053 25.2065H4.75273C4.96342 25.2065 5.10389 25.347 5.10389 25.5577V34.6176H6.15737C6.36806 34.6176 6.50852 34.6878 6.50852 34.9688V37.146C6.50852 37.3566 6.36806 37.4971 6.15737 37.4971L0.609053 37.5673Z" fill="black"/>
<path d="M7.5621 22.5377C7.3514 22.5377 7.21094 22.3972 7.21094 22.1865V20.0094C7.21094 19.7987 7.28117 19.6582 7.5621 19.6582H10.1607C15.1471 19.6582 19.2206 22.8889 19.2206 28.7883C19.2206 34.3367 15.5685 37.6375 11.1439 37.6375H8.40488C8.19418 37.6375 8.05372 37.4971 8.05372 37.2864V35.1092C8.05372 34.8985 8.12395 34.758 8.40488 34.758H9.87975C13.4616 34.758 15.5685 33.0725 15.5685 28.8586C15.5685 24.7149 13.4616 22.6079 9.66905 22.6079L7.5621 22.5377Z" fill="black"/>
<path d="M4.61184 19.0262C3.48813 18.8155 2.92628 19.9392 2.78582 20.1499C2.64535 19.9392 2.0835 18.8155 0.959789 19.0262C0.0467756 19.1666 -0.0936902 20.2201 0.0467735 20.7117C0.397933 21.9057 1.59187 22.7485 2.78582 23.6615C3.97976 22.7485 5.1737 21.9057 5.52486 20.7117C5.66532 20.2201 5.52486 19.2369 4.61184 19.0262Z" fill="#E80017"/>
<path d="M4.584 3.6C5.312 3.6 5.944 3.72 6.48 3.96C7.024 4.2 7.44 4.544 7.728 4.992C8.016 5.44 8.16 5.972 8.16 6.588C8.16 7.196 8.016 7.728 7.728 8.184C7.44 8.632 7.024 8.976 6.48 9.216C5.944 9.456 5.312 9.576 4.584 9.576H2.688V12H1.128V3.6H4.584ZM4.512 8.256C5.192 8.256 5.708 8.112 6.06 7.824C6.412 7.536 6.588 7.124 6.588 6.588C6.588 6.052 6.412 5.64 6.06 5.352C5.708 5.064 5.192 4.92 4.512 4.92H2.688V8.256H4.512ZM12.4304 12.084C11.7824 12.084 11.1984 11.944 10.6784 11.664C10.1584 11.384 9.75041 10.996 9.45441 10.5C9.16641 9.996 9.02241 9.428 9.02241 8.796C9.02241 8.164 9.16641 7.6 9.45441 7.104C9.75041 6.608 10.1584 6.22 10.6784 5.94C11.1984 5.66 11.7824 5.52 12.4304 5.52C13.0864 5.52 13.6744 5.66 14.1944 5.94C14.7144 6.22 15.1184 6.608 15.4064 7.104C15.7024 7.6 15.8504 8.164 15.8504 8.796C15.8504 9.428 15.7024 9.996 15.4064 10.5C15.1184 10.996 14.7144 11.384 14.1944 11.664C13.6744 11.944 13.0864 12.084 12.4304 12.084ZM12.4304 10.8C12.9824 10.8 13.4384 10.616 13.7984 10.248C14.1584 9.88 14.3384 9.396 14.3384 8.796C14.3384 8.196 14.1584 7.712 13.7984 7.344C13.4384 6.976 12.9824 6.792 12.4304 6.792C11.8784 6.792 11.4224 6.976 11.0624 7.344C10.7104 7.712 10.5344 8.196 10.5344 8.796C10.5344 9.396 10.7104 9.88 11.0624 10.248C11.4224 10.616 11.8784 10.8 12.4304 10.8ZM27.105 5.592L24.741 12H23.301L21.645 7.584L19.965 12H18.525L16.173 5.592H17.589L19.281 10.32L21.045 5.592H22.305L24.033 10.344L25.773 5.592H27.105ZM33.9846 8.832C33.9846 8.936 33.9766 9.084 33.9606 9.276H28.9326C29.0206 9.748 29.2486 10.124 29.6166 10.404C29.9926 10.676 30.4566 10.812 31.0086 10.812C31.7126 10.812 32.2926 10.58 32.7486 10.116L33.5526 11.04C33.2646 11.384 32.9006 11.644 32.4606 11.82C32.0206 11.996 31.5246 12.084 30.9726 12.084C30.2686 12.084 29.6486 11.944 29.1126 11.664C28.5766 11.384 28.1606 10.996 27.8646 10.5C27.5766 9.996 27.4326 9.428 27.4326 8.796C27.4326 8.172 27.5726 7.612 27.8526 7.116C28.1406 6.612 28.5366 6.22 29.0406 5.94C29.5446 5.66 30.1126 5.52 30.7446 5.52C31.3686 5.52 31.9246 5.66 32.4126 5.94C32.9086 6.212 33.2926 6.6 33.5646 7.104C33.8446 7.6 33.9846 8.176 33.9846 8.832ZM30.7446 6.72C30.2646 6.72 29.8566 6.864 29.5206 7.152C29.1926 7.432 28.9926 7.808 28.9206 8.28H32.5566C32.4926 7.816 32.2966 7.44 31.9686 7.152C31.6406 6.864 31.2326 6.72 30.7446 6.72ZM36.8534 6.528C37.2854 5.856 38.0454 5.52 39.1334 5.52V6.948C39.0054 6.924 38.8894 6.912 38.7854 6.912C38.2014 6.912 37.7454 7.084 37.4174 7.428C37.0894 7.764 36.9254 8.252 36.9254 8.892V12H35.4254V5.592H36.8534V6.528ZM46.3713 8.832C46.3713 8.936 46.3633 9.084 46.3473 9.276H41.3193C41.4073 9.748 41.6353 10.124 42.0033 10.404C42.3793 10.676 42.8433 10.812 43.3953 10.812C44.0993 10.812 44.6793 10.58 45.1353 10.116L45.9393 11.04C45.6513 11.384 45.2873 11.644 44.8473 11.82C44.4073 11.996 43.9113 12.084 43.3593 12.084C42.6553 12.084 42.0353 11.944 41.4993 11.664C40.9633 11.384 40.5473 10.996 40.2513 10.5C39.9633 9.996 39.8193 9.428 39.8193 8.796C39.8193 8.172 39.9593 7.612 40.2393 7.116C40.5273 6.612 40.9233 6.22 41.4273 5.94C41.9313 5.66 42.4993 5.52 43.1313 5.52C43.7553 5.52 44.3113 5.66 44.7993 5.94C45.2953 6.212 45.6793 6.6 45.9513 7.104C46.2313 7.6 46.3713 8.176 46.3713 8.832ZM43.1313 6.72C42.6513 6.72 42.2433 6.864 41.9073 7.152C41.5793 7.432 41.3793 7.808 41.3073 8.28H44.9433C44.8793 7.816 44.6833 7.44 44.3553 7.152C44.0273 6.864 43.6193 6.72 43.1313 6.72ZM54.0881 3.096V12H52.6481V11.172C52.4001 11.476 52.0921 11.704 51.7241 11.856C51.3641 12.008 50.9641 12.084 50.5241 12.084C49.9081 12.084 49.3521 11.948 48.8561 11.676C48.3681 11.404 47.9841 11.02 47.7041 10.524C47.4241 10.02 47.2841 9.444 47.2841 8.796C47.2841 8.148 47.4241 7.576 47.7041 7.08C47.9841 6.584 48.3681 6.2 48.8561 5.928C49.3521 5.656 49.9081 5.52 50.5241 5.52C50.9481 5.52 51.3361 5.592 51.6881 5.736C52.0401 5.88 52.3401 6.096 52.5881 6.384V3.096H54.0881ZM50.7041 10.8C51.0641 10.8 51.3881 10.72 51.6761 10.56C51.9641 10.392 52.1921 10.156 52.3601 9.852C52.5281 9.548 52.6121 9.196 52.6121 8.796C52.6121 8.396 52.5281 8.044 52.3601 7.74C52.1921 7.436 51.9641 7.204 51.6761 7.044C51.3881 6.876 51.0641 6.792 50.7041 6.792C50.3441 6.792 50.0201 6.876 49.7321 7.044C49.4441 7.204 49.2161 7.436 49.0481 7.74C48.8801 8.044 48.7961 8.396 48.7961 8.796C48.7961 9.196 48.8801 9.548 49.0481 9.852C49.2161 10.156 49.4441 10.392 49.7321 10.56C50.0201 10.72 50.3441 10.8 50.7041 10.8ZM62.9188 5.52C63.5428 5.52 64.0988 5.656 64.5868 5.928C65.0828 6.2 65.4708 6.584 65.7508 7.08C66.0308 7.576 66.1708 8.148 66.1708 8.796C66.1708 9.444 66.0308 10.02 65.7508 10.524C65.4708 11.02 65.0828 11.404 64.5868 11.676C64.0988 11.948 63.5428 12.084 62.9188 12.084C62.4788 12.084 62.0748 12.008 61.7068 11.856C61.3468 11.704 61.0428 11.476 60.7948 11.172V12H59.3668V3.096H60.8668V6.372C61.1228 6.092 61.4228 5.88 61.7668 5.736C62.1188 5.592 62.5028 5.52 62.9188 5.52ZM62.7508 10.8C63.3028 10.8 63.7548 10.616 64.1068 10.248C64.4668 9.88 64.6468 9.396 64.6468 8.796C64.6468 8.196 64.4668 7.712 64.1068 7.344C63.7548 6.976 63.3028 6.792 62.7508 6.792C62.3908 6.792 62.0668 6.876 61.7788 7.044C61.4908 7.204 61.2628 7.436 61.0948 7.74C60.9268 8.044 60.8428 8.396 60.8428 8.796C60.8428 9.196 60.9268 9.548 61.0948 9.852C61.2628 10.156 61.4908 10.392 61.7788 10.56C62.0668 10.72 62.3908 10.8 62.7508 10.8ZM73.4176 5.592L70.4176 12.516C70.1376 13.212 69.7976 13.7 69.3976 13.98C68.9976 14.268 68.5136 14.412 67.9456 14.412C67.6256 14.412 67.3096 14.36 66.9976 14.256C66.6856 14.152 66.4296 14.008 66.2296 13.824L66.8296 12.72C66.9736 12.856 67.1416 12.964 67.3336 13.044C67.5336 13.124 67.7336 13.164 67.9336 13.164C68.1976 13.164 68.4136 13.096 68.5816 12.96C68.7576 12.824 68.9176 12.596 69.0616 12.276L69.1696 12.024L66.3736 5.592H67.9336L69.9496 10.332L71.9776 5.592H73.4176Z" fill="#DDDDDD"/>
</svg>
