<svg width="20" height="20" viewBox="0 0 20 20" fill="none" xmlns="http://www.w3.org/2000/svg">
<g clip-path="url(#clip0)">
<path d="M10.4987 0.291504L7.83203 2.95818H8.83203V16.2916H12.1654V2.95818H13.1654L10.4987 0.291504Z" fill="#99D8AA"/>
<path d="M12.1654 15.8154L11.4987 15.9585C11.4987 15.4061 11.051 14.9585 10.4987 14.9585H8.83203V16.2918H12.1654V15.8154Z" fill="#8DC79D"/>
<path d="M15.5 15.9585H13.5V4.62517L14.5 3.9585L15.5 4.62517V15.9585Z" fill="#C0F5F9"/>
<path d="M15.5 15.1011L13.5 15.5295V15.9582H15.5V15.1011Z" fill="#B9EDF0"/>
<path d="M7.5 15.2917H5.5V6.29167L6.5 5.625L7.5 6.29167V15.2917Z" fill="#C0F5F9"/>
<path d="M13.8347 9.95834C13.8347 11.7992 12.3423 13.2917 10.5013 13.2917C8.66032 13.2917 7.16797 11.7992 7.16797 9.95834C7.16797 8.11736 8.66032 6.625 10.5013 6.625C12.3423 6.625 13.8347 8.11736 13.8347 9.95834Z" fill="#FBB540"/>
<path d="M10.8333 8.34017V7.9585H10.1667V8.34017C9.79687 8.45508 9.53418 8.78353 9.50326 9.1696C9.47233 9.55551 9.6792 9.92156 10.026 10.0941L10.6756 10.4188C10.7941 10.4775 10.8564 10.6102 10.8262 10.7389C10.7959 10.8677 10.6808 10.9587 10.5487 10.9585H10.4513C10.2941 10.9582 10.1668 10.8309 10.1667 10.6738V10.6252H9.5V10.6738C9.50146 11.0879 9.77132 11.4533 10.1667 11.5768V11.9585H10.8333V11.5768C11.2031 11.4618 11.4658 11.1333 11.4967 10.7474C11.5277 10.3613 11.3206 9.99529 10.974 9.82276L10.3242 9.49805C10.2059 9.4393 10.1434 9.30665 10.1737 9.1779C10.2041 9.04916 10.319 8.95817 10.4513 8.9585H10.5487C10.7057 8.95866 10.8332 9.08594 10.8333 9.24317V9.29183H11.5V9.24317C11.4984 8.82894 11.2287 8.46354 10.8333 8.34017Z" fill="#D18D28"/>
<path d="M12.168 9.625H12.8346V10.2917H12.168V9.625Z" fill="#D18D28"/>
<path d="M8.16797 9.9585H8.83464V10.6252H8.16797V9.9585Z" fill="#D18D28"/>
<path d="M3.83464 15.2915H10.168L11.5013 16.2915L16.168 15.2915H16.1744C16.723 15.2915 17.168 15.7363 17.168 16.2852C17.168 16.6916 16.9206 17.0571 16.5433 17.2082L10.5013 19.6249L3.83464 18.6248H3.16797V15.2915H3.83464Z" fill="#FDC9A6"/>
<path d="M7.83203 17.625H10.832C11.1218 17.625 11.3975 17.4994 11.5874 17.2806C11.7774 17.0617 11.8631 16.7712 11.8223 16.4842L11.8273 16.2212L11.4987 16.2917L10.832 15.7917L9.83204 15.625H7.83203V17.625Z" fill="#F6BB92"/>
<path d="M16.5 4.9585H17.1667V5.62516H16.5V4.9585Z" fill="#FBD699"/>
<path d="M16.5 6.2915H17.1667V6.95817H16.5V6.2915Z" fill="#FBD699"/>
<path d="M16.5 7.625H17.1667V8.95834H16.5V7.625Z" fill="#FBD699"/>
<path d="M3.83203 7.625H4.4987V8.29167H3.83203V7.625Z" fill="#FBEDBF"/>
<path d="M3.83203 8.9585H4.4987V9.62516H3.83203V8.9585Z" fill="#FBEDBF"/>
<path d="M3.83203 10.2915H4.4987V11.6248H3.83203V10.2915Z" fill="#FBEDBF"/>
<path d="M3.83203 2.625H4.4987V3.29166H3.83203V2.625Z" fill="#FBEDBF"/>
<path d="M2.83203 3.625H3.4987V4.29167H2.83203V3.625Z" fill="#FBEDBF"/>
<path d="M4.83203 3.625H5.4987V4.29167H4.83203V3.625Z" fill="#FBEDBF"/>
<path d="M3.83203 4.625H4.4987V5.29167H3.83203V4.625Z" fill="#FBEDBF"/>
<path d="M17.832 0.958496H18.4987V1.62517H17.832V0.958496Z" fill="#FBD699"/>
<path d="M17.168 1.625H17.8347V2.29167H17.168V1.625Z" fill="#FBD699"/>
<path d="M18.5 1.625H19.1667V2.29167H18.5V1.625Z" fill="#FBD699"/>
<path d="M17.832 2.2915H18.4987V2.95818H17.832V2.2915Z" fill="#FBD699"/>
<path d="M7.5 13.3798C6.91813 12.9711 6.18099 12.852 5.5 13.0566V15.2919H7.5V13.3798Z" fill="#B9EDF0"/>
<path d="M1.16797 13.9585H3.83465V19.6252H1.16797V13.9585Z" fill="#4799CF"/>
<path d="M10.4987 15.2917H8.47201C8.3073 14.1444 7.32439 13.2925 6.16537 13.2925C5.00635 13.2925 4.02344 14.1444 3.85872 15.2917H3.83203V17.2917H10.4987C11.051 17.2917 11.4987 16.8439 11.4987 16.2917C11.4987 15.7393 11.051 15.2917 10.4987 15.2917Z" fill="#FDC9A6"/>
<path d="M10.1667 11.5768V11.9585H10.8333V11.5768C11.2031 11.4618 11.4658 11.1333 11.4967 10.7474C11.5277 10.3613 11.3206 9.99529 10.974 9.82276L10.3242 9.49805C10.2059 9.4393 10.1434 9.30665 10.1737 9.1779C10.2041 9.04916 10.319 8.95817 10.4513 8.9585H10.5487C10.7057 8.95866 10.8332 9.08594 10.8333 9.24317V9.29183H11.5V9.24317C11.4984 8.82894 11.2287 8.46354 10.8333 8.34017V7.9585H10.1667V8.34017C9.79687 8.45508 9.53418 8.78353 9.50326 9.1696C9.47233 9.55551 9.6792 9.92156 10.026 10.0941L10.6756 10.4188C10.7941 10.4775 10.8564 10.6102 10.8262 10.7389C10.7959 10.8677 10.6808 10.9587 10.5487 10.9585H10.4513C10.2941 10.9582 10.1668 10.8309 10.1667 10.6738V10.6252H9.5V10.6738C9.50146 11.0879 9.77132 11.4533 10.1667 11.5768Z" fill="black"/>
<path d="M12.168 9.625H12.8346V10.2917H12.168V9.625Z" fill="black"/>
<path d="M8.16797 9.9585H8.83464V10.6252H8.16797V9.9585Z" fill="black"/>
<path d="M0.832031 13.9585V19.6252C0.832031 19.8093 0.981283 19.9586 1.16537 19.9586H3.83204C4.01612 19.9586 4.16538 19.8093 4.16538 19.6252V19.0121L10.4494 19.9548C10.4657 19.9573 10.4821 19.9584 10.4987 19.9586C10.5411 19.9586 10.583 19.9504 10.6224 19.9348L16.6654 17.5181C17.2566 17.2807 17.5958 16.6568 17.4735 16.0316C17.3515 15.4063 16.8025 14.9559 16.1654 14.9586C16.1418 14.9584 16.1184 14.9608 16.0954 14.9659L15.8321 15.0225V4.62518C15.8321 4.51369 15.7764 4.40968 15.6836 4.34784L14.6836 3.68117C14.5717 3.6063 14.4257 3.6063 14.3137 3.68117L13.3137 4.34784C13.2211 4.40968 13.1654 4.51369 13.1654 4.62518V7.44973C12.966 7.23717 12.7422 7.04902 12.4987 6.88918V3.29184H13.1654C13.3002 3.29168 13.4218 3.21046 13.4732 3.08595C13.5248 2.96144 13.4963 2.81804 13.4011 2.72283L10.7344 0.0561527C10.6042 -0.0740561 10.3933 -0.0740561 10.2631 0.0561527L7.59638 2.72283C7.501 2.81804 7.47252 2.96144 7.52411 3.08595C7.57571 3.21046 7.69729 3.29168 7.83206 3.29184H8.49873V6.88918C8.25507 7.04902 8.03128 7.23717 7.83206 7.44973V6.29185C7.83206 6.18036 7.77639 6.07636 7.68362 6.01451L6.68361 5.34784C6.57164 5.27297 6.42564 5.27297 6.31366 5.34784L5.31366 6.01451C5.22104 6.07636 5.16538 6.18036 5.16538 6.29185V13.1584C4.77492 13.3182 4.42726 13.5673 4.15073 13.8858C4.11883 13.7349 3.98618 13.6265 3.83204 13.6252H1.16537C0.981283 13.6252 0.832031 13.7743 0.832031 13.9585ZM13.8321 4.8034L14.4987 4.35841L15.1654 4.80275V15.1651L13.8321 15.4507V11.4771C14.2764 10.5134 14.2764 9.40352 13.8321 8.43981V4.8034ZM11.7653 15.8938C11.5926 15.3389 11.0798 14.9603 10.4987 14.9586H9.16539V13.3705C10.0218 13.71 10.9756 13.71 11.8321 13.3705V15.8795L11.7653 15.8938ZM8.49873 13.0271V14.3418C8.32945 14.0378 8.10322 13.7694 7.83206 13.5515V12.4672C8.03128 12.6797 8.25507 12.8679 8.49873 13.0279V13.0271ZM12.4987 13.0271C12.7422 12.8672 12.966 12.6791 13.1654 12.4665V15.5932L12.4987 15.7362V13.0271ZM8.83206 2.62517H8.63675L10.4987 0.763024L12.3607 2.62517H12.1654C11.9813 2.62517 11.8321 2.77426 11.8321 2.95851V6.54641C10.9756 6.20689 10.0218 6.20689 9.16539 6.54641V2.95851C9.16539 2.77426 9.01614 2.62517 8.83206 2.62517ZM10.4987 6.95852C12.1555 6.95852 13.4987 8.30163 13.4987 9.95853C13.4987 11.6153 12.1555 12.9585 10.4987 12.9585C8.84183 12.9585 7.49872 11.6153 7.49872 9.95853C7.50068 8.30244 8.84264 6.96047 10.4987 6.95852ZM5.83205 6.47008L6.49872 6.02509L7.16539 6.46942V8.43916C6.72089 9.40287 6.72089 10.5127 7.16539 11.4764V13.1584C6.74481 12.981 6.2842 12.9203 5.83205 12.9825V6.47008ZM6.16538 13.6252C7.15725 13.6296 7.99726 14.3578 8.14228 15.3391C8.16588 15.5031 8.30634 15.6251 8.47203 15.6252H10.4987C10.8669 15.6252 11.1654 15.9236 11.1654 16.2919C11.1654 16.6601 10.8669 16.9586 10.4987 16.9586H7.83206V17.6252H10.4987C11.1283 17.6241 11.6718 17.1833 11.8028 16.5674L16.1988 15.6252C16.5097 15.6381 16.7696 15.8663 16.8225 16.1731C16.8755 16.4797 16.7074 16.782 16.4187 16.8985L10.4587 19.2821L4.16538 18.3381V15.4221C4.17661 15.3956 4.18442 15.3677 4.18833 15.3391C4.33335 14.3578 5.17336 13.6296 6.16538 13.6252ZM1.4987 14.2919H3.49871V19.2919H1.4987V14.2919Z" fill="black"/>
<path d="M16.5 4.9585H17.1667V5.62516H16.5V4.9585Z" fill="black"/>
<path d="M16.5 6.2915H17.1667V6.95817H16.5V6.2915Z" fill="black"/>
<path d="M16.5 7.625H17.1667V8.95834H16.5V7.625Z" fill="black"/>
<path d="M3.83203 7.625H4.4987V8.29167H3.83203V7.625Z" fill="black"/>
<path d="M3.83203 8.9585H4.4987V9.62516H3.83203V8.9585Z" fill="black"/>
<path d="M3.83203 10.2915H4.4987V11.6248H3.83203V10.2915Z" fill="black"/>
<path d="M3.83203 2.625H4.4987V3.29166H3.83203V2.625Z" fill="black"/>
<path d="M2.83203 3.625H3.4987V4.29167H2.83203V3.625Z" fill="black"/>
<path d="M4.83203 3.625H5.4987V4.29167H4.83203V3.625Z" fill="black"/>
<path d="M3.83203 4.625H4.4987V5.29167H3.83203V4.625Z" fill="black"/>
<path d="M17.832 0.958496H18.4987V1.62517H17.832V0.958496Z" fill="black"/>
<path d="M17.168 1.625H17.8347V2.29167H17.168V1.625Z" fill="black"/>
<path d="M18.5 1.625H19.1667V2.29167H18.5V1.625Z" fill="black"/>
<path d="M17.832 2.2915H18.4987V2.95818H17.832V2.2915Z" fill="black"/>
</g>
<defs>
<clipPath id="clip0">
<rect width="20" height="20" fill="white"/>
</clipPath>
</defs>
</svg>
