<svg width="30" height="30" viewBox="0 0 30 30" fill="none" xmlns="http://www.w3.org/2000/svg">
<path d="M19.6875 13.125H10.3125C9.2775 13.125 8.4375 13.9641 8.4375 15C8.4375 16.035 9.2775 16.875 10.3125 16.875H19.6875C20.7225 16.875 21.5625 16.035 21.5625 15C21.5625 13.965 20.7234 13.125 19.6875 13.125ZM15 0C6.71529 0 0 6.71529 0 15C0 23.2847 6.71529 30 15 30C23.2847 30 30 23.2847 30 15C30 6.71529 23.2847 0 15 0ZM15 27.1875C8.28 27.1875 2.8125 21.72 2.8125 15C2.8125 8.28 8.28 2.8125 15 2.8125C21.72 2.8125 27.1875 8.28 27.1875 15C27.1875 21.72 21.72 27.1875 15 27.1875Z" fill="#FF0000"/>
</svg>
