<svg width="311" height="55" viewBox="0 0 311 55" fill="none" xmlns="http://www.w3.org/2000/svg">
<path opacity="0.25" d="M30.6681 14.5C22.4611 14.5 17.2778 36.775 0 36.775V51C0 53.2091 1.79086 55 4 55H307C309.209 55 311 53.2091 311 51V30.025C282.06 30.025 280.764 14.5 271.261 14.5C261.758 14.5 259.167 36.775 247.936 36.775C236.706 36.775 230.658 18.55 223.747 18.55C216.836 18.55 213.381 30.025 207.333 30.025C201.286 30.025 194.807 11.125 190.488 11.125C186.168 11.125 183.576 18.55 174.938 18.55C166.299 18.55 162.843 1 154.636 1C146.429 1 139.95 23.95 130.447 23.95C120.944 23.95 117.921 36.775 108.85 36.775C99.7792 36.775 84.6611 23.95 78.1819 23.95C71.7028 23.95 64.7917 30.025 56.5847 30.025C48.3778 30.025 38.875 14.5 30.6681 14.5Z" fill="url(#paint0_linear)"/>
<path d="M0 36.775C17.2778 36.775 22.4611 14.5 30.6681 14.5C38.875 14.5 48.3778 30.025 56.5847 30.025C64.7917 30.025 71.7028 23.95 78.1819 23.95C84.6611 23.95 99.7792 36.775 108.85 36.775C117.921 36.775 120.944 23.95 130.447 23.95C139.95 23.95 146.429 1 154.636 1C162.843 1 166.299 18.55 174.937 18.55C183.576 18.55 186.168 11.125 190.487 11.125C194.807 11.125 201.286 30.025 207.333 30.025C213.381 30.025 216.836 18.55 223.747 18.55C230.658 18.55 236.706 36.775 247.936 36.775C259.167 36.775 261.758 14.5 271.261 14.5C280.764 14.5 282.06 30.025 311 30.025" stroke="url(#paint1_linear)" stroke-width="2"/>
<defs>
<linearGradient id="paint0_linear" x1="155.5" y1="1" x2="155.5" y2="55" gradientUnits="userSpaceOnUse">
<stop stop-color="#6FCF97"/>
<stop offset="1" stop-color="#66D2EA"/>
</linearGradient>
<linearGradient id="paint1_linear" x1="155.5" y1="1" x2="155.5" y2="36.775" gradientUnits="userSpaceOnUse">
<stop stop-color="#6FCF97"/>
<stop offset="1" stop-color="#66D2EA"/>
</linearGradient>
</defs>
</svg>
