<svg width="25" height="24" viewBox="0 0 25 24" fill="none" xmlns="http://www.w3.org/2000/svg">
<g clip-path="url(#clip0)">
<path d="M10.5228 0C5.39015 0 1.22852 4.16168 1.22852 9.29429C1.22852 14.4269 5.39015 18.5886 10.5228 18.5886C12.4965 18.5886 14.3269 17.9729 15.8315 16.9243L22.8601 23.9519C22.9235 24.0153 23.0263 24.0153 23.0865 23.9562L24.4106 22.6321C24.4719 22.5709 24.4664 22.4659 24.4063 22.4057L17.4694 15.4689C18.9303 13.8277 19.817 11.6648 19.817 9.29425C19.8171 4.16168 15.6554 0 10.5228 0ZM10.5228 17.4951C5.99376 17.4951 2.32195 13.8233 2.32195 9.29429C2.32195 4.76525 5.99372 1.09347 10.5228 1.09347C15.0519 1.09347 18.7236 4.76525 18.7236 9.29429C18.7236 13.8233 15.0518 17.4951 10.5228 17.4951Z" fill="#585858" fill-opacity="0.5"/>
</g>
<defs>
<clipPath id="clip0">
<rect width="24" height="24" fill="white" transform="translate(0.841797)"/>
</clipPath>
</defs>
</svg>
