<svg width="32" height="32" viewBox="0 0 32 32" fill="none" xmlns="http://www.w3.org/2000/svg">
<path fill-rule="evenodd" clip-rule="evenodd" d="M32 16C32 24.8366 24.8366 32 16 32C7.16338 32 0 24.8366 0 16C0 7.16338 7.16338 0 16 0C24.8366 0 32 7.16338 32 16Z" fill="#00ABF0"/>
<path fill-rule="evenodd" clip-rule="evenodd" d="M19.768 12.8276C19.3982 12.4355 18.8699 12.1904 18.2849 12.1904C17.1636 12.1904 16.2536 13.0947 16.2536 14.21C16.2536 14.3684 16.271 14.5219 16.3059 14.6698C14.6171 14.5855 13.12 13.7824 12.1172 12.559C11.9421 12.8584 11.8421 13.2057 11.8421 13.5756C11.8421 14.2758 12.2007 14.8941 12.7463 15.2563C12.4136 15.2465 12.0997 15.1548 11.8252 15.0046V15.0292C11.8252 16.0081 12.5258 16.8247 13.4561 17.0095C13.2858 17.0569 13.106 17.0808 12.9206 17.0808C12.7897 17.0808 12.662 17.0685 12.5382 17.0449C12.7968 17.8469 13.5468 18.4311 14.4362 18.4467C13.741 18.9885 12.8643 19.3115 11.9125 19.3115C11.7485 19.3115 11.5864 19.3023 11.4277 19.2838C12.3269 19.8559 13.3956 20.1904 14.5428 20.1904C18.2809 20.1904 20.3244 17.1136 20.3244 14.4445C20.3244 14.3566 20.3228 14.2689 20.3194 14.1828C20.7163 13.898 21.0612 13.5425 21.3325 13.1375C20.9686 13.298 20.5767 13.4067 20.1657 13.4554C20.5854 13.2057 20.9075 12.81 21.0593 12.3383C20.6663 12.5695 20.2321 12.7377 19.768 12.8276Z" fill="white"/>
</svg>
